# File generated by ImageToStl.com - Free Image and 3D model conversion tools

mtllib concerthallv3.mtl

o obj1
v 9.14999962 0.07 20.10000038
v 9.14999962 0.1 20.10000038
v 9.15608501 0.07 20.20448303
v 9.15608501 0.1 20.20448303
v 9.17425919 0.07 20.30755424
v 9.17425919 0.1 20.30755424
v 9.20427704 0.07 20.40781784
v 9.20427704 0.1 20.40781784
v 9.2457304 0.07 20.5039196
v 9.2457304 0.1 20.5039196
v 9.29806137 0.07 20.59455872
v 9.29806137 0.1 20.59455872
v 9.36056042 0.07 20.67850876
v 9.36056042 0.1 20.67850876
v 9.43238258 0.07 20.75463676
v 9.43238258 0.1 20.75463676
v 9.51255703 0.07 20.82191086
v 9.51255703 0.1 20.82191086
v 9.60000038 0.07 20.87942314
v 9.60000038 0.1 20.87942314
v 9.69352818 0.07 20.92639542
v 9.69352818 0.1 20.92639542
v 9.79187679 0.07 20.96219063
v 9.79187679 0.1 20.96219063
v 9.89371681 0.07 20.98632622
v 9.89371681 0.1 20.98632622
v 9.99766922 0.07 20.99847794
v 9.99766922 0.1 20.99847794
v 10.10233021 0.07 20.99847794
v 10.10233021 0.1 20.99847794
v 10.20628357 0.07 20.98632622
v 10.20628357 0.1 20.98632622
v 10.30812263 0.07 20.96219063
v 10.30812263 0.1 20.96219063
v 10.40647221 0.07 20.92639542
v 10.40647221 0.1 20.92639542
v 10.5 0.07 20.87942314
v 10.5 0.1 20.87942314
v 10.5874424 0.07 20.82191086
v 10.5874424 0.1 20.82191086
v 10.6676178 0.07 20.75463676
v 10.6676178 0.1 20.75463676
v 10.73943996 0.07 20.67850876
v 10.73943996 0.1 20.67850876
v 10.80193901 0.07 20.59455872
v 10.80193901 0.1 20.59455872
v 10.85426903 0.07 20.5039196
v 10.85426903 0.1 20.5039196
v 10.89572334 0.07 20.40781784
v 10.89572334 0.1 20.40781784
v 10.92574024 0.07 20.30755424
v 10.92574024 0.1 20.30755424
v 10.94391441 0.07 20.20448303
v 10.94391441 0.1 20.20448303
v 10.94999981 0.07 20.10000038
v 10.94999981 0.1 20.10000038
v 11.35000038 0.15000001 20.10000038
v 11.34406567 0.15000001 20.2240715
v 11.35000038 0.07 20.10000038
v 11.34374046 0.07 20.22742271
v 11.32631683 0.15000001 20.34701157
v 11.32502079 0.07 20.35361671
v 11.29691601 0.15000001 20.46769524
v 11.29402256 0.07 20.47736931
v 11.25613213 0.15000001 20.58502197
v 11.25104332 0.07 20.5974884
v 11.20433617 0.15000001 20.69791985
v 11.19649792 0.07 20.71281624
v 11.14200115 0.15000001 20.80536079
v 11.13091087 0.07 20.82224083
v 11.06969643 0.15000001 20.90636063
v 11.05491352 0.07 20.92471123
v 10.98808289 0.15000001 21
v 10.96923923 0.07 21.01923943
v 10.89864254 0.15000001 21.08478737
v 10.87471104 0.07 21.10491371
v 10.80157471 0.15000001 21.16072464
v 10.77224159 0.07 21.18091011
v 10.697752 0.15000001 21.22712708
v 10.66281605 0.07 21.24649811
v 10.58810806 0.15000001 21.28340149
v 10.54748821 0.07 21.30104256
v 10.47362804 0.15000001 21.32904053
v 10.42737007 0.07 21.34402275
v 10.35534096 0.15000001 21.3636322
v 10.30361748 0.07 21.37502098
v 10.2343092 0.15000001 21.38686752
v 10.17742252 0.07 21.3937397
v 10.1116209 0.15000001 21.39853859
v 10.05000019 0.07 21.39999962
v 9.98837948 0.15000001 21.39853859
v 9.92257786 0.07 21.3937397
v 9.86569118 0.15000001 21.38686752
v 9.7963829 0.07 21.37502098
v 9.74465942 0.15000001 21.3636322
v 9.67263031 0.07 21.34402275
v 9.62637234 0.15000001 21.32904053
v 9.55251122 0.07 21.30104256
v 9.51189232 0.15000001 21.28340149
v 9.43718433 0.07 21.24649811
v 9.40224743 0.15000001 21.22712708
v 9.32775879 0.07 21.18091011
v 9.29842567 0.15000001 21.16072464
v 9.22528839 0.07 21.10491371
v 9.20135784 0.15000001 21.08478737
v 9.13076115 0.07 21.01923943
v 9.11191654 0.15000001 21
v 9.04508686 0.07 20.92471123
v 9.030303 0.15000001 20.90636063
v 8.96908951 0.07 20.82224083
v 8.95799923 0.15000001 20.80536079
v 8.90350246 0.07 20.71281624
v 8.89566422 0.15000001 20.69791985
v 8.84895706 0.07 20.5974884
v 8.84386826 0.15000001 20.58502197
v 8.80597782 0.07 20.47736931
v 8.80308342 0.15000001 20.46769524
v 8.77497959 0.07 20.35361671
v 8.77368259 0.15000001 20.34701157
v 8.75625992 0.07 20.22742271
v 8.75593376 0.15000001 20.2240715
v 8.75 0.07 20.10000038
v 8.75 0.15000001 20.10000038
v 9.55000019 0.1 20.10000038
v 9.55000019 0.05 20.10000038
v 9.14999962 0.05 20.10000038
v 8.75 -0.05 20.10000038
v 8.64999962 0.15000001 20.10000038
v 8.64999962 -0.25 20.10000038
v 8.75 -0.25 20.10000038
v 9.14999962 -0.05 20.10000038
v 8.64999962 0.15000001 21
v 10.55000019 0.1 20.10000038
v 10.54384422 0.1 20.17821693
v 10.52552795 0.1 20.25450897
v 10.49550343 0.1 20.32699585
v 10.45450878 0.1 20.39389229
v 10.40355301 0.1 20.45355415
v 10.34389305 0.1 20.50450897
v 10.27699566 0.1 20.54550362
v 10.20450878 0.1 20.5755291
v 10.1282177 0.1 20.59384346
v 10.05000019 0.1 20.60000038
v 9.97178268 0.1 20.59384346
v 9.8954916 0.1 20.5755291
v 9.82300472 0.1 20.54550362
v 9.75610733 0.1 20.50450897
v 9.69644642 0.1 20.45355415
v 9.6454916 0.1 20.39389229
v 9.60449696 0.1 20.32699585
v 9.57447147 0.1 20.25450897
v 9.55615616 0.1 20.17821693
v 11.44999981 0.15000001 21
v 11.44999981 0.15000001 20.10000038
v 10.54384422 0.15000001 20.02178192
v 10.55000019 0.15000001 20.10000038
v 10.10000038 0.15000001 20.10000038
v 10.54384422 0.15000001 20.17821693
v 10.52552795 0.15000001 20.25450897
v 10.49550343 0.15000001 20.32699585
v 10.45450878 0.15000001 20.39389229
v 10.40355301 0.15000001 20.45355415
v 10.34389305 0.15000001 20.50450897
v 10.27699566 0.15000001 20.54550362
v 10.20450878 0.15000001 20.5755291
v 10.1282177 0.15000001 20.59384346
v 10.05000019 0.15000001 20.60000038
v 10 0.15000001 20.10000038
v 9.97178268 0.15000001 20.59384346
v 9.8954916 0.15000001 20.5755291
v 9.82300472 0.15000001 20.54550362
v 9.75610733 0.15000001 20.50450897
v 9.69644642 0.15000001 20.45355415
v 9.6454916 0.15000001 20.39389229
v 9.60449696 0.15000001 20.32699585
v 9.57447147 0.15000001 20.25450897
v 9.55615616 0.15000001 20.17821693
v 9.55000019 0.15000001 20.10000038
v 9.55615616 0.15000001 20.02178192
v 10 0.15000001 20
v 9.57447147 0.15000001 19.94549179
v 9.60449696 0.15000001 19.87300491
v 9.6454916 0.15000001 19.80610657
v 9.69644642 0.15000001 19.74644661
v 9.75610733 0.15000001 19.69549179
v 9.82300472 0.15000001 19.65449715
v 9.8954916 0.15000001 19.62447166
v 9.97178268 0.15000001 19.6061554
v 10.05000019 0.15000001 19.60000038
v 10.10000038 0.15000001 20
v 10.1282177 0.15000001 19.6061554
v 10.20450878 0.15000001 19.62447166
v 10.27699566 0.15000001 19.65449715
v 10.34389305 0.15000001 19.69549179
v 10.40355301 0.15000001 19.74644661
v 10.45450878 0.15000001 19.80610657
v 10.49550343 0.15000001 19.87300491
v 10.52552795 0.15000001 19.94549179
v 9.409688 -0.44999999 18.10000038
v 9.409688 -0.34999999 18.10000038
v 9.27140808 -0.44999999 18.14966774
v 9.27140808 -0.34999999 18.14966774
v 9.13694 -0.44999999 18.20888329
v 9.13694 -0.34999999 18.20888329
v 9.0069418 -0.44999999 18.2773571
v 9.0069418 -0.34999999 18.2773571
v 8.88204861 -0.44999999 18.35475159
v 8.88204861 -0.34999999 18.35475159
v 8.76287365 -0.44999999 18.44069099
v 8.76287365 -0.34999999 18.44069099
v 8.64999962 -0.44999999 18.53475189
v 8.64999962 -0.34999999 18.53475189
v 8.64999962 -0.44999999 18.10000038
v 11.44999981 -0.44999999 18.53475189
v 11.44999981 -0.34999999 18.53475189
v 11.33712578 -0.44999999 18.44069099
v 11.33712578 -0.34999999 18.44069099
v 11.21795082 -0.44999999 18.35475159
v 11.21795082 -0.34999999 18.35475159
v 11.09305859 -0.44999999 18.2773571
v 11.09305859 -0.34999999 18.2773571
v 10.96306038 -0.44999999 18.20888329
v 10.96306038 -0.34999999 18.20888329
v 10.8285923 -0.44999999 18.14966774
v 10.8285923 -0.34999999 18.14966774
v 10.69031239 -0.44999999 18.10000038
v 10.69031239 -0.34999999 18.10000038
v 11.44999981 -0.44999999 18.10000038
v 11.44999981 -0.34999999 19.13563538
v 11.44999981 -0.25 19.13563538
v 11.36400223 -0.34999999 19.02139091
v 11.36400223 -0.25 19.02139091
v 11.26870632 -0.34999999 18.91477585
v 11.26870632 -0.25 18.91477585
v 11.16478825 -0.34999999 18.8165493
v 11.16478825 -0.25 18.8165493
v 11.05298328 -0.34999999 18.72740173
v 11.05298328 -0.25 18.72740173
v 10.93408203 -0.34999999 18.64796638
v 10.93408203 -0.25 18.64796638
v 10.80892467 -0.34999999 18.57880592
v 10.80892467 -0.25 18.57880592
v 10.67839813 -0.34999999 18.52040672
v 10.67839813 -0.25 18.52040672
v 10.54342556 -0.34999999 18.47318459
v 10.54342556 -0.25 18.47318459
v 10.40496159 -0.34999999 18.43747139
v 10.40496159 -0.25 18.43747139
v 10.26398659 -0.34999999 18.41352081
v 10.26398659 -0.25 18.41352081
v 10.12149715 -0.34999999 18.40150452
v 10.12149715 -0.25 18.40150452
v 9.97850227 -0.34999999 18.40150452
v 9.97850227 -0.25 18.40150452
v 9.83601284 -0.34999999 18.41352081
v 9.83601284 -0.25 18.41352081
v 9.69503784 -0.34999999 18.43747139
v 9.69503784 -0.25 18.43747139
v 9.55657482 -0.34999999 18.47318459
v 9.55657482 -0.25 18.47318459
v 9.42160225 -0.34999999 18.52040672
v 9.42160225 -0.25 18.52040672
v 9.29107571 -0.34999999 18.57880592
v 9.29107571 -0.25 18.57880592
v 9.16591835 -0.34999999 18.64796638
v 9.16591835 -0.25 18.64796638
v 9.0470171 -0.34999999 18.72740173
v 9.0470171 -0.25 18.72740173
v 8.93521118 -0.34999999 18.8165493
v 8.93521118 -0.25 18.8165493
v 8.83129311 -0.34999999 18.91477585
v 8.83129311 -0.25 18.91477585
v 8.73599815 -0.34999999 19.02139091
v 8.73599815 -0.25 19.02139091
v 8.64999962 -0.34999999 19.13563538
v 8.64999962 -0.25 19.13563538
v 11.35000038 -0.25 20.10000038
v 11.35000038 -0.05 20.10000038
v 11.34374046 -0.25 19.97257805
v 11.34374046 -0.05 19.97257805
v 11.32502079 -0.25 19.84638214
v 11.32502079 -0.05 19.84638214
v 11.29402256 -0.25 19.72262955
v 11.29402256 -0.05 19.72262955
v 11.25104332 -0.25 19.60251236
v 11.25104332 -0.05 19.60251236
v 11.19649792 -0.25 19.48718452
v 11.19649792 -0.05 19.48718452
v 11.13091087 -0.25 19.37775803
v 11.13091087 -0.05 19.37775803
v 11.05491352 -0.25 19.27528954
v 11.05491352 -0.05 19.27528954
v 10.96923923 -0.25 19.18076134
v 10.96923923 -0.05 19.18076134
v 10.87471104 -0.25 19.09508705
v 10.87471104 -0.05 19.09508705
v 10.77224159 -0.25 19.01908875
v 10.77224159 -0.05 19.01908875
v 10.66281605 -0.25 18.95350266
v 10.66281605 -0.05 18.95350266
v 10.54748821 -0.25 18.8989563
v 10.54748821 -0.05 18.8989563
v 10.42737007 -0.25 18.85597801
v 10.42737007 -0.05 18.85597801
v 10.30361748 -0.25 18.82497978
v 10.30361748 -0.05 18.82497978
v 10.17742252 -0.25 18.80625916
v 10.17742252 -0.05 18.80625916
v 10.05000019 -0.25 18.79999924
v 10.05000019 -0.05 18.79999924
v 9.92257786 -0.25 18.80625916
v 9.92257786 -0.05 18.80625916
v 9.7963829 -0.25 18.82497978
v 9.7963829 -0.05 18.82497978
v 9.67263031 -0.25 18.85597801
v 9.67263031 -0.05 18.85597801
v 9.55251122 -0.25 18.8989563
v 9.55251122 -0.05 18.8989563
v 9.43718433 -0.25 18.95350266
v 9.43718433 -0.05 18.95350266
v 9.32775879 -0.25 19.01908875
v 9.32775879 -0.05 19.01908875
v 9.22528839 -0.25 19.09508705
v 9.22528839 -0.05 19.09508705
v 9.13076115 -0.25 19.18076134
v 9.13076115 -0.05 19.18076134
v 9.04508686 -0.25 19.27528954
v 9.04508686 -0.05 19.27528954
v 8.96908951 -0.25 19.37775803
v 8.96908951 -0.05 19.37775803
v 8.90350246 -0.25 19.48718452
v 8.90350246 -0.05 19.48718452
v 8.84895706 -0.25 19.60251236
v 8.84895706 -0.05 19.60251236
v 8.80597782 -0.25 19.72262955
v 8.80597782 -0.05 19.72262955
v 8.77497959 -0.25 19.84638214
v 8.77497959 -0.05 19.84638214
v 8.75625992 -0.25 19.97257805
v 8.75625992 -0.05 19.97257805
v 11.44999981 -0.25 20.10000038
v 10.94999981 -0.05 20.10000038
v 10.94999981 0.05 20.10000038
v 10.94391441 -0.05 19.99551582
v 10.94391441 0.05 19.99551582
v 10.92574024 -0.05 19.89244652
v 10.92574024 0.05 19.89244652
v 10.89572334 -0.05 19.79218102
v 10.89572334 0.05 19.79218102
v 10.85426903 -0.05 19.69608116
v 10.85426903 0.05 19.69608116
v 10.80193901 -0.05 19.60544205
v 10.80193901 0.05 19.60544205
v 10.73943996 -0.05 19.521492
v 10.73943996 0.05 19.521492
v 10.6676178 -0.05 19.445364
v 10.6676178 0.05 19.445364
v 10.5874424 -0.05 19.3780899
v 10.5874424 0.05 19.3780899
v 10.5 -0.05 19.32057762
v 10.5 0.05 19.32057762
v 10.40647221 -0.05 19.27360535
v 10.40647221 0.05 19.27360535
v 10.30812263 -0.05 19.23781013
v 10.30812263 0.05 19.23781013
v 10.20628357 -0.05 19.21367264
v 10.20628357 0.05 19.21367264
v 10.10233021 -0.05 19.20152283
v 10.10233021 0.05 19.20152283
v 9.99766922 -0.05 19.20152283
v 9.99766922 0.05 19.20152283
v 9.89371681 -0.05 19.21367264
v 9.89371681 0.05 19.21367264
v 9.79187679 -0.05 19.23781013
v 9.79187679 0.05 19.23781013
v 9.69352818 -0.05 19.27360535
v 9.69352818 0.05 19.27360535
v 9.60000038 -0.05 19.32057762
v 9.60000038 0.05 19.32057762
v 9.51255703 -0.05 19.3780899
v 9.51255703 0.05 19.3780899
v 9.43238258 -0.05 19.445364
v 9.43238258 0.05 19.445364
v 9.36056042 -0.05 19.521492
v 9.36056042 0.05 19.521492
v 9.29806137 -0.05 19.60544205
v 9.29806137 0.05 19.60544205
v 9.2457304 -0.05 19.69608116
v 9.2457304 0.05 19.69608116
v 9.20427704 -0.05 19.79218102
v 9.20427704 0.05 19.79218102
v 9.17425919 -0.05 19.89244652
v 9.17425919 0.05 19.89244652
v 9.15608501 -0.05 19.99551582
v 9.15608501 0.05 19.99551582
v 9.55615616 0.05 20.02178192
v 9.57447147 0.05 19.94549179
v 9.60449696 0.05 19.87300491
v 9.6454916 0.05 19.80610657
v 9.69644642 0.05 19.74644661
v 9.75610733 0.05 19.69549179
v 9.82300472 0.05 19.65449715
v 9.8954916 0.05 19.62447166
v 9.97178268 0.05 19.6061554
v 10.05000019 0.05 19.60000038
v 10.1282177 0.05 19.6061554
v 10.20450878 0.05 19.62447166
v 10.27699566 0.05 19.65449715
v 10.34389305 0.05 19.69549179
v 10.40355301 0.05 19.74644661
v 10.45450878 0.05 19.80610657
v 10.49550343 0.05 19.87300491
v 10.52552795 0.05 19.94549179
v 10.54384422 0.05 20.02178192
v 10.55000019 0.05 20.10000038
v 10 -0 20.10000038
v 10 -0 20
v 10.10000038 -0 20.10000038
v 10.10000038 -0 20
v 8.64999962 0.25 18.10000038
v 11.44999981 0.25 18.10000038
v 11.44999981 0.25 21
v 8.64999962 0.25 21
vn 0.99831 0 -0.05814
vn 0.98481 0 -0.17365
vn 0.95799 0 -0.2868
vn 0.91822 0 -0.39608
vn 0.86603 0 -0.5
vn 0.80212 0 -0.59716
vn 0.72737 0 -0.68624
vn 0.64279 0 -0.76604
vn 0.54951 0 -0.83549
vn 0.54951 -0 -0.83549
vn 0.4488 -0 -0.89363
vn 0.4488 0 -0.89363
vn 0.34202 0 -0.93969
vn 0.23062 0 -0.97304
vn 0.11609 0 -0.99324
vn 0 0 -1
vn -0.11609 0 -0.99324
vn -0.23062 0 -0.97304
vn -0.34202 0 -0.93969
vn -0.4488 0 -0.89363
vn -0.54951 0 -0.83549
vn -0.64279 0 -0.76604
vn -0.72737 0 -0.68624
vn -0.80212 0 -0.59716
vn -0.86603 0 -0.5
vn -0.91822 0 -0.39608
vn -0.95799 0 -0.2868
vn -0.98481 0 -0.17365
vn -0.99831 0 -0.05814
vn 0.99886 0 0.04777
vn 0.99879 -0.00201 0.04907
vn 0.98974 0.00196 0.14289
vn 0.98917 -0.00391 0.14673
vn 0.97158 0.0038 0.23669
vn 0.97002 -0.0057 0.24298
vn 0.94454 0.00554 0.32834
vn 0.94152 -0.00739 0.33688
vn 0.90889 0.00717 0.41698
vn 0.90395 -0.00896 0.42754
vn 0.86493 0.00869 0.50182
vn 0.85768 -0.01043 0.51407
vn 0.81308 0.0101 0.58207
vn 0.80315 -0.01179 0.59566
vn 0.7538 0.0114 0.657
vn 0.74089 -0.01303 0.6715
vn 0.68792 0.01247 0.72568
vn 0.67149 -0.01448 0.74087
vn 0.6161 0.01383 0.78755
vn 0.59563 -0.01575 0.80311
vn 0.53875 0.01501 0.84233
vn 0.51403 -0.01683 0.85761
vn 0.45655 0.016 0.88955
vn 0.42749 -0.01774 0.90385
vn 0.37026 0.01682 0.92878
vn 0.33683 -0.01846 0.94138
vn 0.28065 0.01745 0.95965
vn 0.24294 -0.019 0.96986
vn 0.18851 0.0179 0.98191
vn 0.1467 -0.01937 0.98899
vn 0.09468 0.01817 0.99534
vn 0.04906 -0.01955 0.9986
vn 0 0.01826 0.99983
vn -0.04906 -0.01955 0.9986
vn -0.09468 0.01817 0.99534
vn -0.1467 -0.01937 0.98899
vn -0.18851 0.0179 0.98191
vn -0.24294 -0.019 0.96986
vn -0.28065 0.01745 0.95965
vn -0.33683 -0.01846 0.94138
vn -0.37026 0.01682 0.92878
vn -0.42749 -0.01774 0.90385
vn -0.45655 0.016 0.88955
vn -0.51403 -0.01683 0.85761
vn -0.53875 0.01501 0.84233
vn -0.59563 -0.01575 0.80311
vn -0.6161 0.01383 0.78755
vn -0.67149 -0.01448 0.74087
vn -0.68792 0.01247 0.72568
vn -0.74089 -0.01303 0.6715
vn -0.7538 0.0114 0.657
vn -0.80315 -0.01179 0.59566
vn -0.81308 0.0101 0.58207
vn -0.85768 -0.01043 0.51407
vn -0.86493 0.00869 0.50182
vn -0.90395 -0.00896 0.42754
vn -0.90889 0.00717 0.41698
vn -0.94152 -0.00739 0.33688
vn -0.94454 0.00554 0.32834
vn -0.97002 -0.0057 0.24298
vn -0.97158 0.0038 0.23669
vn -0.98917 -0.00391 0.14673
vn -0.98974 0.00196 0.14289
vn -0.99879 -0.00201 0.04907
vn -0.99886 0 0.04777
vn 0 -1 -0
vn 0 -1 -0
vn 0 -1 -0
vn -0 -1 -0
vn -0 -1 -0
vn 0 -1 -0
vn -0 -1 -0
vn -0 -1 -0
vn 0 -1 -0
vn 0 -1 -0
vn -0 -1 -0
vn -0 -1 -0
vn 0 -1 -0
vn 0 -1 -0
vn -0 -1 -0
vn 0 -1 -0
vn -0 -1 -0
vn -0 -1 -0
vn 0 -1 -0
vn 0 -1 -0
vn 0 -1 -0
vn -0 -1 -0
vn -0 -1 -0
vn 0 -1 -0
vn 0 -1 -0
vn -0 -1 -0
vn 0 -1 -0
vn -0 -1 -0
vn -0 -1 -0
vn -0 -1 -0
vn 0 -1 -0
vn 0 -1 -0
vn -0 -1 -0
vn 0 -1 -0
vn -0 -1 -0
vn -0 -1 -0
vn 0 -1 -0
vn 0 -1 -0
vn -0 -1 -0
vn -0 -1 -0
vn -0 -1 -0
vn 0 -1 -0
vn 0 -1 -0
vn -0 -1 -0
vn 0 -1 -0
vn -0 -1 -0
vn -0 -1 -0
vn 0 -1 -0
vn 0 -1 -0
vn -0 -1 -0
vn -0 -1 -0
vn 0 -1 -0
vn 0 -1 -0
vn -0 -1 -0
vn 0 -1 -0
vn 0 -1 -0
vn -0 -1 -0
vn -0 -1 -0
vn 0 1 0
vn 0 1 0
vn 0 1 0
vn 0 1 0
vn 0 1 0
vn -0 0 1
vn -0 -1 -0
vn 0 -1 -0
vn -0 -1 0
vn -0 -1 -0
vn -0 -1 -0
vn -0 -1 0
vn -0 -1 0
vn -0 -1 0
vn 0 -1 0
vn 0 -1 -0
vn 0 -1 -0
vn 0 -1 -0
vn -0 -1 -0
vn -0 -1 -0
vn -0 -1 -0
vn 0 -1 -0
vn 0 -1 -0
vn 0 -1 -0
vn 0 -1 -0
vn -0 -1 -0
vn -0 -1 -0
vn 0 -1 -0
vn 0 -1 -0
vn -0 -1 -0
vn 0 -1 -0
vn -0 -1 -0
vn 0 -1 -0
vn 0 -1 -0
vn -0 -1 -0
vn -0 -1 -0
vn -0 -1 -0
vn 0 -1 -0
vn 0 -1 -0
vn -0 -1 -0
vn 0 -1 -0
vn 0 -1 -0
vn 0 -1 -0
vn -0 -1 -0
vn -0 -1 -0
vn 0 -1 -0
vn -0 -1 -0
vn 0 -1 -0
vn -0 -1 -0
vn -0 -1 -0
vn 0 -1 -0
vn 0 -1 -0
vn -0 -1 -0
vn -0 -1 -0
vn -0 -1 -0
vn -0 -1 -0
vn 0 -1 -0
vn 0 -1 -0
vn 0 -1 -0
vn -0 -1 -0
vn -0 -1 -0
vn 0 -1 0
vn 0 -1 0
vn 0 -1 0
vn 0 -1 -0
vn 0 -1 -0
vn 0 -1 0
vn -0 -1 -0
vn 0 -1 -0
vn -0 -1 -0
vn 0 -1 -0
vn -0 -1 -0
vn 0 -1 -0
vn -0 -1 -0
vn 0 -1 -0
vn -0 -1 -0
vn -0 -1 -0
vn -0 -1 -0
vn -0 -1 -0
vn 0 -1 -0
vn 0 -1 -0
vn 0 -1 -0
vn -0 -1 -0
vn 0 -1 -0
vn -0 -1 -0
vn 0 -1 -0
vn -0 -1 -0
vn 0 -1 -0
vn -0 -1 -0
vn -0 -1 -0
vn -0 -1 -0
vn -0 -1 -0
vn 0 -1 -0
vn -0 -1 -0
vn 0 -1 -0
vn -0 -1 -0
vn -0 -1 -0
vn -0 -1 -0
vn 0 -1 -0
vn 0 -1 -0
vn 0 -1 -0
vn 0 -1 -0
vn -0 -1 -0
vn 0 -1 -0
vn -0 -1 -0
vn 0 -1 -0
vn 0 -1 -0
vn 0 -1 -0
vn 0 -1 0
vn 0.33804 -0 0.94113
vn 0.40302 -0 0.91519
vn 0.46603 -0 0.88477
vn 0.52675 -0 0.85002
vn 0.5849 -0 0.81111
vn 0.64018 -0 0.76822
vn 0 -1 0
vn 0 -1 0
vn 0 -1 0
vn 0 -1 0
vn 0 -1 0
vn 0 -1 0
vn -0.64018 0 0.76822
vn -0.5849 0 0.81111
vn -0.52675 0 0.85002
vn -0.46603 0 0.88477
vn -0.40302 0 0.91519
vn -0.33804 0 0.94113
vn -0 -1 0
vn -0 -1 0
vn -0 -1 0
vn -0 -1 0
vn -0 -1 0
vn -0.79894 0 0.60141
vn -0.79894 0 0.60141
vn -0.74557 0 0.66642
vn -0.74557 0 0.66642
vn -0.68693 0 0.72672
vn -0.62343 0 0.78188
vn -0.55551 0 0.83151
vn -0.48367 0 0.87525
vn -0.4084 0 0.9128
vn -0.33024 0 0.9439
vn -0.33024 0 0.9439
vn -0.24975 0 0.96831
vn -0.24975 0 0.96831
vn -0.16749 0 0.98587
vn -0.08404 0 0.99646
vn 0.08404 -0 0.99646
vn 0.08404 0 0.99646
vn 0.16749 0 0.98587
vn 0.16749 -0 0.98587
vn 0.24975 -0 0.96831
vn 0.33024 -0 0.9439
vn 0.4084 -0 0.9128
vn 0.48367 -0 0.87525
vn 0.55551 -0 0.83151
vn 0.62343 -0 0.78188
vn 0.68693 -0 0.72672
vn 0.74557 -0 0.66642
vn 0.79894 -0 0.60141
vn 0 -1 0
vn 0 -1 0
vn 0 -1 0
vn 0 -1 0
vn 0 -1 0
vn 0 -1 0
vn 0 -1 -0
vn 0 -1 -0
vn 0 -1 -0
vn -0 -1 -0
vn -0 -1 -0
vn -0 -1 -0
vn -0 -1 -0
vn -0 -1 -0
vn -0 -1 -0
vn -0 -1 0
vn 0 -1 0
vn 0 -1 0
vn -0 -1 0
vn 0 -1 0
vn 0 -1 -0
vn 0 -1 -0
vn 0 -1 -0
vn 0 -1 -0
vn 0 -1 -0
vn 0 -1 -0
vn -0 -1 -0
vn -0 -1 -0
vn -0 -1 0
vn -0 -1 0
vn -0 -1 0
vn -0 -1 0
vn -0 -1 0
vn -0 -1 0
vn -0.9988 0 0.04907
vn -0.98918 0 0.14673
vn -0.97003 0 0.24298
vn -0.94154 0 0.33689
vn -0.90399 0 0.42756
vn -0.85773 0 0.5141
vn -0.80321 0 0.5957
vn -0.80321 0 0.5957
vn -0.74095 0 0.67156
vn -0.74095 0 0.67156
vn -0.67156 0 0.74095
vn -0.5957 0 0.80321
vn -0.5141 0 0.85773
vn -0.42756 0 0.90399
vn -0.33689 0 0.94154
vn -0.24298 0 0.97003
vn -0.14673 0 0.98918
vn -0.04907 0 0.9988
vn 0.04907 -0 0.9988
vn 0.14673 -0 0.98918
vn 0.24298 -0 0.97003
vn 0.33689 -0 0.94154
vn 0.42756 -0 0.90399
vn 0.5141 -0 0.85773
vn 0.5957 -0 0.80321
vn 0.5957 0 0.80321
vn 0.67156 0 0.74095
vn 0.67156 -0 0.74095
vn 0.74095 -0 0.67156
vn 0.80321 -0 0.5957
vn 0.85773 -0 0.5141
vn 0.90399 -0 0.42756
vn 0.94154 -0 0.33689
vn 0.97003 -0 0.24298
vn 0.98918 -0 0.14673
vn 0.9988 -0 0.04907
vn -0 -1 -0
vn 0 -1 0
vn -0 -1 -0
vn -0 -1 -0
vn -0 -1 -0
vn -0 -1 -0
vn -0 -1 -0
vn -0 -1 -0
vn -0 -1 -0
vn -0 -1 0
vn 0 -1 -0
vn -0 -1 -0
vn -0 -1 -0
vn -0 -1 -0
vn 0 -1 -0
vn -0 -1 -0
vn 0 -1 -0
vn -0 -1 -0
vn -0 -1 -0
vn -0 -1 -0
vn -0 -1 -0
vn -0 -1 -0
vn 0 -1 -0
vn -0 -1 -0
vn -0 -1 -0
vn -0 -1 -0
vn -0 -1 -0
vn 0 -1 -0
vn 0 -1 -0
vn 0 -1 -0
vn 0 -1 -0
vn 0 -1 -0
vn -0 -1 -0
vn 0 -1 -0
vn 0 -1 -0
vn 0 -1 -0
vn 0 -1 -0
vn 0 -1 -0
vn -0 -1 -0
vn 0 -1 -0
vn -0 -1 -0
vn 0 -1 -0
vn 0 -1 -0
vn 0 -1 -0
vn -0 -1 -0
vn 0 -1 0
vn 0 -1 -0
vn 0 -1 -0
vn 0 -1 -0
vn 0 -1 -0
vn 0 -1 -0
vn 0 -1 -0
vn 0 -1 -0
vn -0 -1 0
vn -0.99831 0 0.05814
vn -0.98481 0 0.17365
vn -0.95799 0 0.2868
vn -0.91822 0 0.39608
vn -0.86603 0 0.5
vn -0.80212 0 0.59716
vn -0.72737 0 0.68624
vn -0.64279 0 0.76604
vn -0.54951 0 0.83549
vn -0.4488 0 0.89363
vn -0.34202 0 0.93969
vn -0.23062 0 0.97304
vn -0.11609 0 0.99324
vn 0.11609 -0 0.99324
vn 0.23062 -0 0.97304
vn 0.34202 -0 0.93969
vn 0.4488 -0 0.89363
vn 0.4488 0 0.89363
vn 0.54951 0 0.83549
vn 0.54951 -0 0.83549
vn 0.64279 -0 0.76604
vn 0.72737 -0 0.68624
vn 0.80212 -0 0.59716
vn 0.86603 -0 0.5
vn 0.91822 -0 0.39608
vn 0.95799 -0 0.2868
vn 0.98481 -0 0.17365
vn 0.99831 -0 0.05814
vn 0 -1 -0
vn -0 -1 -0
vn 0 -1 -0
vn 0 -1 -0
vn -0 -1 -0
vn 0 -1 -0
vn -0 -1 -0
vn -0 -1 -0
vn 0 -1 -0
vn 0 -1 -0
vn -0 -1 -0
vn 0 -1 -0
vn 0 -1 -0
vn -0 -1 -0
vn -0 -1 -0
vn 0 -1 -0
vn -0 -1 -0
vn -0 -1 -0
vn 0 -1 -0
vn 0 -1 -0
vn 0 -1 -0
vn -0 -1 -0
vn 0 -1 -0
vn 0 -1 -0
vn -0 -1 -0
vn -0 -1 -0
vn 0 -1 -0
vn -0 -1 -0
vn -0 -1 -0
vn 0 -1 -0
vn 0 -1 -0
vn -0 -1 -0
vn 0 -1 -0
vn -0 -1 -0
vn -0 -1 -0
vn 0 -1 -0
vn -0 -1 -0
vn 0.99692 -0 0.07846
vn 0.99692 -0 0.07846
vn 0.97237 0 0.23345
vn 0.92388 0 0.38268
vn 0.85264 0 0.5225
vn 0.76041 0 0.64945
vn 0.64945 0 0.76041
vn 0.5225 0 0.85264
vn 0.38268 0 0.92388
vn 0.23345 0 0.97237
vn 0.07846 0 0.99692
vn -0.07846 0 0.99692
vn -0.23345 0 0.97237
vn -0.38268 0 0.92388
vn -0.5225 0 0.85264
vn -0.64945 0 0.76041
vn -0.76041 0 0.64945
vn -0.85264 0 0.5225
vn -0.92388 0 0.38268
vn -0.97237 0 0.23345
vn -0.99692 0 0.07846
vn -0.99692 0 -0.07846
vn -0.97237 -0 -0.23345
vn -0.92388 -0 -0.38268
vn -0.85264 -0 -0.5225
vn -0.76041 -0 -0.64945
vn -0.64945 -0 -0.76041
vn -0.5225 -0 -0.85264
vn -0.38268 -0 -0.92388
vn -0.23345 -0 -0.97237
vn -0.07846 -0 -0.99692
vn 0.07846 0 -0.99692
vn 0.23345 0 -0.97237
vn 0.38268 0 -0.92388
vn 0.5225 0 -0.85264
vn 0.64945 0 -0.76041
vn 0.76041 0 -0.64945
vn 0.85264 0 -0.5225
vn 0.92388 0 -0.38268
vn 0.97237 0 -0.23345
vn 0.99692 0 -0.07846
vn 0.99692 -0 -0.07846
vn -0 -1 -0
vn -0 -1 -0
vn 0 -1 -0
vn 0 -1 -0
vn 0 -1 -0
vn -0 -1 -0
vn 0 -1 -0
vn -0 -1 -0
vn -0 -1 -0
vn 0 -1 -0
vn -0 -1 -0
vn -0 -1 -0
vn -0 -1 -0
vn 0 -1 -0
vn 0 -1 -0
vn -0 -1 -0
vn -0 -1 -0
vn 0 -1 -0
vn 0 -1 -0
vn -0 -1 -0
vn 0 -1 -0
vn 0 -1 -0
vn -0 -1 -0
vn -0 -1 -0
vn 0 -1 -0
vn 0 -1 -0
vn -0 -1 -0
vn -0 -1 -0
vn 0 -1 -0
vn 0 -1 -0
vn 0 -1 -0
vn -0 -1 -0
vn 0 -1 -0
vn 0 -1 -0
vn -0 -1 -0
vn 0 -1 -0
vn -0 -1 -0
vn -0 -1 -0
vn -0 -1 -0
vn 0 -1 -0
vn 0 -1 -0
vn -1 -0 -0
vn 1 0 -0
usemtl mat1
f 1//1 2//1 3//1
f 3//1 2//1 4//1
f 3//2 4//2 5//2
f 5//2 4//2 6//2
f 5//3 6//3 7//3
f 7//3 6//3 8//3
f 7//4 8//4 9//4
f 9//4 8//4 10//4
f 9//5 10//5 11//5
f 11//5 10//5 12//5
f 11//6 12//6 13//6
f 13//6 12//6 14//6
f 13//7 14//7 15//7
f 15//7 14//7 16//7
f 15//8 16//8 17//8
f 17//8 16//8 18//8
f 17//9 18//9 19//9
f 19//10 18//10 20//10
f 19//11 20//11 21//11
f 21//12 20//12 22//12
f 21//13 22//13 23//13
f 23//13 22//13 24//13
f 23//14 24//14 25//14
f 25//14 24//14 26//14
f 25//15 26//15 27//15
f 27//15 26//15 28//15
f 27//16 28//16 29//16
f 29//16 28//16 30//16
f 29//17 30//17 31//17
f 31//17 30//17 32//17
f 31//18 32//18 33//18
f 33//18 32//18 34//18
f 33//19 34//19 35//19
f 35//19 34//19 36//19
f 35//20 36//20 37//20
f 37//20 36//20 38//20
f 37//21 38//21 39//21
f 39//21 38//21 40//21
f 39//22 40//22 41//22
f 41//22 40//22 42//22
f 41//23 42//23 43//23
f 43//23 42//23 44//23
f 43//24 44//24 45//24
f 45//24 44//24 46//24
f 45//25 46//25 47//25
f 47//25 46//25 48//25
f 47//26 48//26 49//26
f 49//26 48//26 50//26
f 49//27 50//27 51//27
f 51//27 50//27 52//27
f 51//28 52//28 53//28
f 53//28 52//28 54//28
f 53//29 54//29 55//29
f 55//29 54//29 56//29
f 57//30 58//30 59//30
f 59//31 58//31 60//31
f 60//32 58//32 61//32
f 60//33 61//33 62//33
f 62//34 61//34 63//34
f 62//35 63//35 64//35
f 64//36 63//36 65//36
f 64//37 65//37 66//37
f 66//38 65//38 67//38
f 66//39 67//39 68//39
f 68//40 67//40 69//40
f 68//41 69//41 70//41
f 70//42 69//42 71//42
f 70//43 71//43 72//43
f 72//44 71//44 73//44
f 72//45 73//45 74//45
f 74//46 73//46 75//46
f 74//47 75//47 76//47
f 76//48 75//48 77//48
f 76//49 77//49 78//49
f 78//50 77//50 79//50
f 78//51 79//51 80//51
f 80//52 79//52 81//52
f 80//53 81//53 82//53
f 82//54 81//54 83//54
f 82//55 83//55 84//55
f 84//56 83//56 85//56
f 84//57 85//57 86//57
f 86//58 85//58 87//58
f 86//59 87//59 88//59
f 88//60 87//60 89//60
f 88//61 89//61 90//61
f 90//62 89//62 91//62
f 90//63 91//63 92//63
f 92//64 91//64 93//64
f 92//65 93//65 94//65
f 94//66 93//66 95//66
f 94//67 95//67 96//67
f 96//68 95//68 97//68
f 96//69 97//69 98//69
f 98//70 97//70 99//70
f 98//71 99//71 100//71
f 100//72 99//72 101//72
f 100//73 101//73 102//73
f 102//74 101//74 103//74
f 102//75 103//75 104//75
f 104//76 103//76 105//76
f 104//77 105//77 106//77
f 106//78 105//78 107//78
f 106//79 107//79 108//79
f 108//80 107//80 109//80
f 108//81 109//81 110//81
f 110//82 109//82 111//82
f 110//83 111//83 112//83
f 112//84 111//84 113//84
f 112//85 113//85 114//85
f 114//86 113//86 115//86
f 114//87 115//87 116//87
f 116//88 115//88 117//88
f 116//89 117//89 118//89
f 118//90 117//90 119//90
f 118//91 119//91 120//91
f 120//92 119//92 121//92
f 120//93 121//93 122//93
f 122//94 121//94 123//94
f 55//95 59//95 53//95
f 53//96 59//96 60//96
f 53//97 60//97 51//97
f 51//98 60//98 62//98
f 51//99 62//99 49//99
f 49//100 62//100 64//100
f 49//101 64//101 47//101
f 47//102 64//102 66//102
f 47//103 66//103 45//103
f 45//104 66//104 68//104
f 45//105 68//105 43//105
f 43//106 68//106 70//106
f 43//107 70//107 41//107
f 41//108 70//108 72//108
f 41//109 72//109 39//109
f 39//110 72//110 74//110
f 39//111 74//111 37//111
f 37//112 74//112 76//112
f 37//113 76//113 35//113
f 35//114 76//114 78//114
f 35//115 78//115 33//115
f 33//116 78//116 80//116
f 33//117 80//117 31//117
f 31//118 80//118 82//118
f 31//119 82//119 84//119
f 31//120 84//120 29//120
f 29//121 84//121 86//121
f 29//122 86//122 88//122
f 88//123 90//123 29//123
f 29//124 90//124 27//124
f 27//125 90//125 92//125
f 27//126 92//126 94//126
f 94//127 96//127 27//127
f 27//128 96//128 25//128
f 25//129 96//129 98//129
f 25//130 98//130 100//130
f 25//131 100//131 23//131
f 23//132 100//132 102//132
f 23//133 102//133 21//133
f 21//134 102//134 104//134
f 21//135 104//135 19//135
f 19//136 104//136 106//136
f 19//137 106//137 17//137
f 17//138 106//138 108//138
f 17//139 108//139 15//139
f 15//140 108//140 110//140
f 15//141 110//141 13//141
f 13//142 110//142 112//142
f 13//143 112//143 11//143
f 11//144 112//144 114//144
f 11//145 114//145 9//145
f 9//146 114//146 116//146
f 9//147 116//147 7//147
f 7//148 116//148 118//148
f 7//149 118//149 5//149
f 5//150 118//150 120//150
f 5//151 120//151 3//151
f 3//152 120//152 122//152
f 3//95 122//95 1//95
f 73//153 107//153 75//153
f 75//153 107//153 105//153
f 75//154 105//154 77//154
f 77//154 105//154 103//154
f 77//155 103//155 79//155
f 79//155 103//155 101//155
f 79//155 101//155 81//155
f 81//155 101//155 99//155
f 81//156 99//156 83//156
f 83//156 99//156 97//156
f 83//155 97//155 85//155
f 85//155 97//155 95//155
f 85//155 95//155 87//155
f 87//155 95//155 93//155
f 87//157 93//157 89//157
f 89//157 93//157 91//157
f 2//158 1//158 124//158
f 124//158 1//158 125//158
f 125//158 1//158 126//158
f 126//158 1//158 122//158
f 126//158 122//158 127//158
f 127//158 122//158 128//158
f 127//158 128//158 129//158
f 122//158 123//158 128//158
f 129//158 130//158 127//158
f 127//158 131//158 126//158
f 123//159 121//159 128//159
f 128//160 121//160 119//160
f 128//161 119//161 132//161
f 132//162 119//162 117//162
f 132//163 117//163 115//163
f 115//164 113//164 132//164
f 132//165 113//165 111//165
f 132//166 111//166 109//166
f 109//167 107//167 132//167
f 133//168 56//168 134//168
f 134//169 56//169 54//169
f 134//170 54//170 135//170
f 135//171 54//171 52//171
f 135//172 52//172 136//172
f 136//173 52//173 50//173
f 136//174 50//174 137//174
f 137//175 50//175 48//175
f 137//176 48//176 138//176
f 138//177 48//177 46//177
f 138//178 46//178 139//178
f 139//179 46//179 44//179
f 139//180 44//180 140//180
f 140//181 44//181 42//181
f 140//182 42//182 141//182
f 141//183 42//183 40//183
f 141//184 40//184 142//184
f 142//185 40//185 38//185
f 142//186 38//186 36//186
f 142//187 36//187 143//187
f 143//188 36//188 34//188
f 143//189 34//189 32//189
f 32//190 30//190 143//190
f 143//191 30//191 28//191
f 143//192 28//192 26//192
f 26//193 24//193 143//193
f 143//194 24//194 22//194
f 143//195 22//195 144//195
f 144//196 22//196 20//196
f 144//197 20//197 18//197
f 144//198 18//198 145//198
f 145//199 18//199 16//199
f 145//200 16//200 146//200
f 146//201 16//201 14//201
f 146//202 14//202 147//202
f 147//203 14//203 12//203
f 147//204 12//204 148//204
f 148//205 12//205 10//205
f 148//206 10//206 149//206
f 149//207 10//207 8//207
f 149//208 8//208 150//208
f 150//209 8//209 6//209
f 150//210 6//210 151//210
f 151//211 6//211 4//211
f 151//212 4//212 152//212
f 152//213 4//213 2//213
f 152//168 2//168 124//168
f 73//167 71//167 153//167
f 153//214 71//214 69//214
f 153//215 69//215 67//215
f 67//216 65//216 153//216
f 153//217 65//217 63//217
f 153//218 63//218 61//218
f 153//219 61//219 154//219
f 154//220 61//220 58//220
f 154//159 58//159 57//159
f 155//221 156//221 157//221
f 157//221 156//221 158//221
f 157//222 158//222 159//222
f 159//223 160//223 157//223
f 157//224 160//224 161//224
f 157//225 161//225 162//225
f 162//226 163//226 157//226
f 157//227 163//227 164//227
f 157//228 164//228 165//228
f 165//229 166//229 157//229
f 157//230 166//230 167//230
f 157//231 167//231 168//231
f 168//232 167//232 169//232
f 168//233 169//233 170//233
f 170//234 171//234 168//234
f 168//235 171//235 172//235
f 168//236 172//236 173//236
f 173//237 174//237 168//237
f 168//238 174//238 175//238
f 168//239 175//239 176//239
f 176//240 177//240 168//240
f 168//221 177//221 178//221
f 168//221 178//221 179//221
f 168//241 179//241 180//241
f 180//242 179//242 181//242
f 180//243 181//243 182//243
f 182//244 183//244 180//244
f 180//245 183//245 184//245
f 180//246 184//246 185//246
f 185//247 186//247 180//247
f 180//248 186//248 187//248
f 180//249 187//249 188//249
f 188//250 189//250 180//250
f 180//251 189//251 190//251
f 190//252 189//252 191//252
f 190//253 191//253 192//253
f 192//254 193//254 190//254
f 190//255 193//255 194//255
f 190//256 194//256 195//256
f 195//257 196//257 190//257
f 190//258 196//258 197//258
f 190//259 197//259 198//259
f 198//260 155//260 190//260
f 190//261 155//261 157//261
f 199//262 200//262 201//262
f 201//262 200//262 202//262
f 201//263 202//263 203//263
f 203//263 202//263 204//263
f 203//264 204//264 205//264
f 205//264 204//264 206//264
f 205//265 206//265 207//265
f 207//265 206//265 208//265
f 207//266 208//266 209//266
f 209//266 208//266 210//266
f 209//267 210//267 211//267
f 211//267 210//267 212//267
f 211//268 213//268 209//268
f 209//269 213//269 207//269
f 207//270 213//270 205//270
f 205//271 213//271 203//271
f 203//272 213//272 201//272
f 201//273 213//273 199//273
f 214//274 215//274 216//274
f 216//274 215//274 217//274
f 216//275 217//275 218//275
f 218//275 217//275 219//275
f 218//276 219//276 220//276
f 220//276 219//276 221//276
f 220//277 221//277 222//277
f 222//277 221//277 223//277
f 222//278 223//278 224//278
f 224//278 223//278 225//278
f 224//279 225//279 226//279
f 226//279 225//279 227//279
f 226//273 228//273 224//273
f 224//280 228//280 222//280
f 222//281 228//281 220//281
f 220//282 228//282 218//282
f 218//283 228//283 216//283
f 216//284 228//284 214//284
f 229//285 230//285 231//285
f 231//286 230//286 232//286
f 231//287 232//287 233//287
f 233//288 232//288 234//288
f 233//289 234//289 235//289
f 235//289 234//289 236//289
f 235//290 236//290 237//290
f 237//290 236//290 238//290
f 237//291 238//291 239//291
f 239//291 238//291 240//291
f 239//292 240//292 241//292
f 241//292 240//292 242//292
f 241//293 242//293 243//293
f 243//293 242//293 244//293
f 243//294 244//294 245//294
f 245//295 244//295 246//295
f 245//296 246//296 247//296
f 247//297 246//297 248//297
f 247//298 248//298 249//298
f 249//298 248//298 250//298
f 249//299 250//299 251//299
f 251//299 250//299 252//299
f 251//158 252//158 253//158
f 253//158 252//158 254//158
f 253//300 254//300 255//300
f 255//301 254//301 256//301
f 255//302 256//302 257//302
f 257//303 256//303 258//303
f 257//304 258//304 259//304
f 259//304 258//304 260//304
f 259//305 260//305 261//305
f 261//305 260//305 262//305
f 261//306 262//306 263//306
f 263//306 262//306 264//306
f 263//307 264//307 265//307
f 265//307 264//307 266//307
f 265//308 266//308 267//308
f 267//308 266//308 268//308
f 267//309 268//309 269//309
f 269//309 268//309 270//309
f 269//310 270//310 271//310
f 271//310 270//310 272//310
f 271//311 272//311 273//311
f 273//311 272//311 274//311
f 273//312 274//312 275//312
f 275//312 274//312 276//312
f 275//313 212//313 273//313
f 273//314 212//314 271//314
f 271//315 212//315 269//315
f 269//316 212//316 267//316
f 267//317 212//317 265//317
f 265//318 212//318 263//318
f 263//319 212//319 210//319
f 263//320 210//320 261//320
f 261//321 210//321 208//321
f 261//322 208//322 259//322
f 259//323 208//323 206//323
f 259//324 206//324 257//324
f 257//325 206//325 204//325
f 257//326 204//326 202//326
f 257//327 202//327 255//327
f 255//328 202//328 200//328
f 255//329 200//329 253//329
f 253//330 200//330 227//330
f 253//330 227//330 251//330
f 251//331 227//331 249//331
f 249//332 227//332 225//332
f 249//333 225//333 247//333
f 247//334 225//334 223//334
f 247//335 223//335 221//335
f 247//336 221//336 245//336
f 245//337 221//337 219//337
f 245//338 219//338 243//338
f 243//339 219//339 217//339
f 243//320 217//320 241//320
f 241//340 217//340 215//340
f 241//341 215//341 239//341
f 239//342 215//342 237//342
f 237//343 215//343 235//343
f 235//344 215//344 233//344
f 233//345 215//345 231//345
f 231//346 215//346 229//346
f 277//347 278//347 279//347
f 279//347 278//347 280//347
f 279//348 280//348 281//348
f 281//348 280//348 282//348
f 281//349 282//349 283//349
f 283//349 282//349 284//349
f 283//350 284//350 285//350
f 285//350 284//350 286//350
f 285//351 286//351 287//351
f 287//351 286//351 288//351
f 287//352 288//352 289//352
f 289//352 288//352 290//352
f 289//353 290//353 291//353
f 291//354 290//354 292//354
f 291//355 292//355 293//355
f 293//356 292//356 294//356
f 293//357 294//357 295//357
f 295//357 294//357 296//357
f 295//358 296//358 297//358
f 297//358 296//358 298//358
f 297//359 298//359 299//359
f 299//359 298//359 300//359
f 299//360 300//360 301//360
f 301//360 300//360 302//360
f 301//361 302//361 303//361
f 303//361 302//361 304//361
f 303//362 304//362 305//362
f 305//362 304//362 306//362
f 305//363 306//363 307//363
f 307//363 306//363 308//363
f 307//364 308//364 309//364
f 309//364 308//364 310//364
f 309//365 310//365 311//365
f 311//365 310//365 312//365
f 311//366 312//366 313//366
f 313//366 312//366 314//366
f 313//367 314//367 315//367
f 315//367 314//367 316//367
f 315//368 316//368 317//368
f 317//368 316//368 318//368
f 317//369 318//369 319//369
f 319//369 318//369 320//369
f 319//370 320//370 321//370
f 321//370 320//370 322//370
f 321//371 322//371 323//371
f 323//372 322//372 324//372
f 323//373 324//373 325//373
f 325//374 324//374 326//374
f 325//375 326//375 327//375
f 327//375 326//375 328//375
f 327//376 328//376 329//376
f 329//376 328//376 330//376
f 329//377 330//377 331//377
f 331//377 330//377 332//377
f 331//378 332//378 333//378
f 333//378 332//378 334//378
f 333//379 334//379 335//379
f 335//379 334//379 336//379
f 335//380 336//380 337//380
f 337//380 336//380 338//380
f 337//381 338//381 339//381
f 339//381 338//381 340//381
f 339//382 340//382 130//382
f 130//382 340//382 127//382
f 130//383 129//383 339//383
f 339//384 129//384 337//384
f 337//385 129//385 276//385
f 337//386 276//386 335//386
f 335//387 276//387 333//387
f 333//388 276//388 331//388
f 331//389 276//389 329//389
f 329//390 276//390 327//390
f 327//391 276//391 325//391
f 325//392 276//392 274//392
f 325//320 274//320 323//320
f 323//393 274//393 272//393
f 323//394 272//394 321//394
f 321//395 272//395 270//395
f 321//396 270//396 319//396
f 319//397 270//397 268//397
f 319//398 268//398 266//398
f 319//399 266//399 317//399
f 317//400 266//400 264//400
f 317//401 264//401 315//401
f 315//402 264//402 262//402
f 315//403 262//403 313//403
f 313//404 262//404 260//404
f 313//405 260//405 258//405
f 313//406 258//406 311//406
f 311//407 258//407 256//407
f 311//408 256//408 254//408
f 311//409 254//409 309//409
f 309//410 254//410 252//410
f 309//411 252//411 307//411
f 307//412 252//412 250//412
f 307//413 250//413 248//413
f 307//414 248//414 305//414
f 305//415 248//415 246//415
f 305//416 246//416 244//416
f 305//417 244//417 303//417
f 303//418 244//418 242//418
f 303//419 242//419 301//419
f 301//420 242//420 240//420
f 301//421 240//421 299//421
f 299//422 240//422 238//422
f 299//423 238//423 236//423
f 299//424 236//424 297//424
f 297//425 236//425 234//425
f 297//426 234//426 295//426
f 295//427 234//427 232//427
f 295//320 232//320 293//320
f 293//428 232//428 230//428
f 293//429 230//429 291//429
f 291//430 230//430 289//430
f 289//431 230//431 287//431
f 287//432 230//432 285//432
f 285//433 230//433 283//433
f 283//434 230//434 281//434
f 281//435 230//435 341//435
f 281//436 341//436 279//436
f 279//383 341//383 277//383
f 342//437 343//437 344//437
f 344//437 343//437 345//437
f 344//438 345//438 346//438
f 346//438 345//438 347//438
f 346//439 347//439 348//439
f 348//439 347//439 349//439
f 348//440 349//440 350//440
f 350//440 349//440 351//440
f 350//441 351//441 352//441
f 352//441 351//441 353//441
f 352//442 353//442 354//442
f 354//442 353//442 355//442
f 354//443 355//443 356//443
f 356//443 355//443 357//443
f 356//444 357//444 358//444
f 358//444 357//444 359//444
f 358//445 359//445 360//445
f 360//445 359//445 361//445
f 360//446 361//446 362//446
f 362//446 361//446 363//446
f 362//447 363//447 364//447
f 364//447 363//447 365//447
f 364//448 365//448 366//448
f 366//448 365//448 367//448
f 366//449 367//449 368//449
f 368//449 367//449 369//449
f 368//158 369//158 370//158
f 370//158 369//158 371//158
f 370//450 371//450 372//450
f 372//450 371//450 373//450
f 372//451 373//451 374//451
f 374//451 373//451 375//451
f 374//452 375//452 376//452
f 376//452 375//452 377//452
f 376//453 377//453 378//453
f 378//454 377//454 379//454
f 378//455 379//455 380//455
f 380//456 379//456 381//456
f 380//457 381//457 382//457
f 382//457 381//457 383//457
f 382//458 383//458 384//458
f 384//458 383//458 385//458
f 384//459 385//459 386//459
f 386//459 385//459 387//459
f 386//460 387//460 388//460
f 388//460 387//460 389//460
f 388//461 389//461 390//461
f 390//461 389//461 391//461
f 390//462 391//462 392//462
f 392//462 391//462 393//462
f 392//463 393//463 394//463
f 394//463 393//463 395//463
f 394//464 395//464 131//464
f 131//464 395//464 126//464
f 131//95 127//95 394//95
f 394//96 127//96 340//96
f 394//97 340//97 392//97
f 392//98 340//98 338//98
f 392//99 338//99 390//99
f 390//100 338//100 336//100
f 390//101 336//101 388//101
f 388//102 336//102 334//102
f 388//103 334//103 386//103
f 386//104 334//104 332//104
f 386//465 332//465 384//465
f 384//466 332//466 330//466
f 384//467 330//467 382//467
f 382//468 330//468 328//468
f 382//469 328//469 380//469
f 380//110 328//110 326//110
f 380//470 326//470 378//470
f 378//471 326//471 324//471
f 378//472 324//472 376//472
f 376//473 324//473 322//473
f 376//474 322//474 374//474
f 374//475 322//475 320//475
f 374//476 320//476 372//476
f 372//477 320//477 318//477
f 372//478 318//478 316//478
f 372//479 316//479 370//479
f 370//480 316//480 314//480
f 370//481 314//481 312//481
f 312//482 310//482 370//482
f 370//483 310//483 368//483
f 368//484 310//484 308//484
f 368//485 308//485 306//485
f 306//486 304//486 368//486
f 368//487 304//487 366//487
f 366//488 304//488 302//488
f 366//489 302//489 300//489
f 366//490 300//490 364//490
f 364//491 300//491 298//491
f 364//492 298//492 362//492
f 362//493 298//493 296//493
f 362//494 296//494 360//494
f 360//495 296//495 294//495
f 360//496 294//496 358//496
f 358//138 294//138 292//138
f 358//497 292//497 356//497
f 356//498 292//498 290//498
f 356//499 290//499 354//499
f 354//500 290//500 288//500
f 354//501 288//501 352//501
f 352//144 288//144 286//144
f 352//145 286//145 350//145
f 350//146 286//146 284//146
f 350//147 284//147 348//147
f 348//148 284//148 282//148
f 348//149 282//149 346//149
f 346//150 282//150 280//150
f 346//151 280//151 344//151
f 344//152 280//152 278//152
f 344//95 278//95 342//95
f 125//502 396//502 124//502
f 124//502 396//502 179//502
f 124//503 179//503 178//503
f 179//504 396//504 181//504
f 181//504 396//504 397//504
f 181//505 397//505 182//505
f 182//505 397//505 398//505
f 182//506 398//506 183//506
f 183//506 398//506 399//506
f 183//507 399//507 184//507
f 184//507 399//507 400//507
f 184//508 400//508 185//508
f 185//508 400//508 401//508
f 185//509 401//509 186//509
f 186//509 401//509 402//509
f 186//510 402//510 187//510
f 187//510 402//510 403//510
f 187//511 403//511 188//511
f 188//511 403//511 404//511
f 188//512 404//512 189//512
f 189//512 404//512 405//512
f 189//513 405//513 191//513
f 191//513 405//513 406//513
f 191//514 406//514 192//514
f 192//514 406//514 407//514
f 192//515 407//515 193//515
f 193//515 407//515 408//515
f 193//516 408//516 194//516
f 194//516 408//516 409//516
f 194//517 409//517 195//517
f 195//517 409//517 410//517
f 195//518 410//518 196//518
f 196//518 410//518 411//518
f 196//519 411//519 197//519
f 197//519 411//519 412//519
f 197//520 412//520 198//520
f 198//520 412//520 413//520
f 198//521 413//521 155//521
f 155//521 413//521 414//521
f 155//522 414//522 133//522
f 133//522 414//522 415//522
f 134//523 158//523 133//523
f 133//523 158//523 156//523
f 133//522 156//522 155//522
f 158//524 134//524 159//524
f 159//524 134//524 135//524
f 159//525 135//525 160//525
f 160//525 135//525 136//525
f 160//526 136//526 161//526
f 161//526 136//526 137//526
f 161//527 137//527 162//527
f 162//527 137//527 138//527
f 162//528 138//528 163//528
f 163//528 138//528 139//528
f 163//529 139//529 164//529
f 164//529 139//529 140//529
f 164//530 140//530 165//530
f 165//530 140//530 141//530
f 165//531 141//531 166//531
f 166//531 141//531 142//531
f 166//532 142//532 167//532
f 167//532 142//532 143//532
f 167//533 143//533 169//533
f 169//533 143//533 144//533
f 169//534 144//534 170//534
f 170//534 144//534 145//534
f 170//535 145//535 171//535
f 171//535 145//535 146//535
f 171//536 146//536 172//536
f 172//536 146//536 147//536
f 172//537 147//537 173//537
f 173//537 147//537 148//537
f 173//538 148//538 174//538
f 174//538 148//538 149//538
f 174//539 149//539 175//539
f 175//539 149//539 150//539
f 175//540 150//540 176//540
f 176//540 150//540 151//540
f 176//541 151//541 177//541
f 177//541 151//541 152//541
f 177//542 152//542 178//542
f 178//543 152//543 124//543
f 56//158 133//158 55//158
f 55//158 133//158 415//158
f 55//158 415//158 343//158
f 342//158 278//158 343//158
f 343//158 278//158 59//158
f 343//158 59//158 55//158
f 277//158 341//158 278//158
f 278//158 341//158 154//158
f 278//158 154//158 59//158
f 59//158 154//158 57//158
f 125//168 126//168 396//168
f 396//544 126//544 395//544
f 396//545 395//545 397//545
f 397//546 395//546 393//546
f 397//547 393//547 398//547
f 398//548 393//548 391//548
f 398//174 391//174 399//174
f 399//175 391//175 389//175
f 399//549 389//549 400//549
f 400//550 389//550 387//550
f 400//551 387//551 401//551
f 401//552 387//552 385//552
f 401//553 385//553 402//553
f 402//554 385//554 383//554
f 402//555 383//555 403//555
f 403//556 383//556 381//556
f 403//557 381//557 404//557
f 404//558 381//558 379//558
f 404//559 379//559 377//559
f 404//560 377//560 405//560
f 405//561 377//561 375//561
f 405//562 375//562 373//562
f 373//563 371//563 405//563
f 405//564 371//564 369//564
f 405//565 369//565 367//565
f 367//566 365//566 405//566
f 405//567 365//567 363//567
f 405//568 363//568 406//568
f 406//569 363//569 361//569
f 406//570 361//570 359//570
f 406//571 359//571 407//571
f 407//572 359//572 357//572
f 407//573 357//573 408//573
f 408//574 357//574 355//574
f 408//575 355//575 409//575
f 409//576 355//576 353//576
f 409//577 353//577 410//577
f 410//578 353//578 351//578
f 410//579 351//579 411//579
f 411//207 351//207 349//207
f 411//208 349//208 412//208
f 412//580 349//580 347//580
f 412//581 347//581 413//581
f 413//582 347//582 345//582
f 413//583 345//583 414//583
f 414//584 345//584 343//584
f 414//168 343//168 415//168
f 168//585 180//585 416//585
f 416//585 180//585 417//585
f 157//158 168//158 418//158
f 418//158 168//158 416//158
f 190//586 157//586 419//586
f 419//586 157//586 418//586
f 180//16 190//16 417//16
f 417//16 190//16 419//16
f 417//320 419//320 416//320
f 416//320 419//320 418//320
f 199//16 213//16 200//16
f 200//16 213//16 420//16
f 200//16 420//16 421//16
f 200//16 421//16 227//16
f 227//16 421//16 228//16
f 227//16 228//16 226//16
f 214//586 228//586 215//586
f 215//586 228//586 421//586
f 215//586 421//586 230//586
f 230//586 421//586 154//586
f 230//586 154//586 341//586
f 421//586 422//586 154//586
f 154//586 422//586 153//586
f 230//586 229//586 215//586
f 153//158 422//158 73//158
f 73//158 422//158 423//158
f 73//158 423//158 107//158
f 107//158 423//158 132//158
f 132//585 423//585 128//585
f 128//585 423//585 420//585
f 128//585 420//585 276//585
f 276//585 420//585 212//585
f 276//585 212//585 275//585
f 420//585 213//585 212//585
f 212//585 213//585 211//585
f 276//585 129//585 128//585
f 423//155 422//155 420//155
f 420//155 422//155 421//155
# Vertices: 423, normals: 586, texture coordinates: 0, faces: 842

