# File generated by ImageToStl.com - Free Image and 3D model conversion tools

mtllib uploads_files_2463307_Note+Eight.mtl

o obj1
v -0.31832877 -0.02573851 0.47268721
v -0.33952665 -0.04317893 0.43592742
v -0.30823651 -0.02573851 0.43592742
v -0.33650559 -0.02573852 0.51241523
v -0.35047606 -0.04317893 0.47262126
v -0.36696616 -0.04317893 0.51188755
v -0.38262337 -0.02573853 0.47255528
v -0.3708168 -0.02573853 0.43592742
v -0.36181238 -0.02573852 0.5517081
v -0.39015335 -0.02573853 0.58973622
v -0.38800752 -0.04317894 0.55008107
v -0.41181922 -0.04317895 0.58674598
v -0.41420263 -0.02573854 0.54845405
v -0.39742672 -0.02573854 0.51135987
v -0.41692227 -0.02573854 0.62749851
v -0.43861225 -0.02573854 0.6707356
v -0.43619156 -0.04317895 0.62365085
v -0.45799148 -0.04317896 0.66827303
v -0.45546085 -0.02573855 0.61980319
v -0.43348506 -0.02573854 0.58375579
v -0.45151851 -0.02573854 0.72452623
v -0.45004538 -0.02573854 0.78656197
v -0.47283256 -0.04317896 0.72687882
v -0.47223893 -0.04317896 0.7951808
v -0.49414665 -0.02573856 0.72923148
v -0.47737071 -0.02573856 0.66581053
v -0.43010336 -0.02573853 0.85222554
v -0.39551812 -0.02573852 0.91505277
v -0.44974643 -0.04317895 0.86645103
v -0.41102767 -0.04317893 0.93475294
v -0.4693895 -0.02573854 0.88067645
v -0.49443245 -0.02573856 0.80379963
v -0.35204723 -0.0257385 0.96983594
v -0.30526012 -0.02573849 1.01823902
v -0.36406389 -0.04317891 0.99705261
v -0.313934 -0.04317889 1.06113315
v -0.37608057 -0.02573851 1.02426934
v -0.42653725 -0.02573853 0.95445317
v -0.26012591 -0.02643608 1.04961443
v -0.21920072 -0.045543 1.18000925
v -0.26463604 -0.04352768 1.13011229
v -0.26928484 -0.02643608 1.20557749
v -0.32260785 -0.02573849 1.10402703
v -0.36288419 -0.02573853 0.4053193
v -0.35755676 -0.02573853 0.38059324
v -0.33438173 -0.04317893 0.4053193
v -0.30883208 -0.02573851 0.38059324
v -0.30587927 -0.02573851 0.4053193
v -0.35291785 -0.02374688 0.36151111
v -0.3331944 -0.04317893 0.38059324
v -0.33468699 -0.02175522 0.34939885
v -0.3337709 -0.04048751 0.36132303
v -0.3145898 -0.02374687 0.36151111
v -0.1816342 -0.04436092 0.9643265
v -0.21729031 -0.03224955 0.97774893
v -0.15694821 -0.02573844 0.96286541
v -0.18190585 -0.04546547 1.19701815
v -0.15689318 -0.02573843 1.19905639
v -0.17983022 -0.04436091 1.34127021
v -0.21681249 -0.03224953 1.32382417
v -0.15650806 -0.02573842 1.34303474
v -0.17426087 -0.04066181 1.43129683
v -0.1582662 -0.01411148 1.47066152
v -0.15620784 -0.02374677 1.43091357
v -0.18306957 -0.01411149 1.47066164
v -0.19355723 -0.0244444 1.42987943
v -0.20480351 -0.02643608 0.62330401
v -0.20338427 -0.02573848 0.29172504
v -0.1802132 -0.04352768 0.62231332
v -0.17899607 -0.04436095 0.28864151
v -0.15577805 -0.02643607 0.62038976
v -0.20238996 -0.02374684 0.0860239
v -0.19757976 -0.01411156 0.00361007
v -0.178589 -0.04297649 0.08311591
v -0.17802863 -0.02374684 -0.01374644
v -0.14585102 -0.04436095 0.0761984
v -0.14571908 -0.03224955 0.26313412
v -0.14586687 -0.02573848 -0.01938665
v -0.11136568 -0.04335327 0.06378219
v -0.11136961 -0.02573847 -0.02546227
v -0.07251897 -0.04317886 0.05505922
v -0.07251897 -0.02573844 0.14910465
v -0.11111191 -0.02643608 0.16047958
v -0.07251897 -0.02573845 -0.03898633
v -0.02614883 -0.04317884 0.04391178
v -0.0261488 -0.02573844 -0.06160665
v 0.02299169 -0.04317883 0.03236875
v 0.02299169 -0.02573842 0.15100995
v -0.0261488 -0.02573843 0.14943036
v 0.02299169 -0.02573843 -0.08627236
v 0.06988943 -0.04317881 0.02465138
v 0.06988949 -0.02573841 -0.10563308
v 0.11639157 -0.0431788 0.01970446
v 0.11639154 -0.02573839 0.15924892
v 0.06988949 -0.0257384 0.15493593
v 0.11639154 -0.0257384 -0.11984015
v 0.16520232 -0.04317878 0.01564777
v 0.16520226 -0.02573838 -0.13028181
v 0.21559602 -0.04317877 0.01258066
v 0.21559602 -0.02573835 0.16095415
v 0.16520226 -0.02573837 0.1615774
v 0.21559602 -0.02573837 -0.13579285
v 0.26638544 -0.04317875 0.01079971
v 0.31796652 -0.02573833 -0.1294266
v 0.2663855 -0.02573835 -0.13514709
v 0.31796652 -0.02573832 0.14825574
v 0.2663855 -0.02573834 0.15674651
v 0.37060291 -0.02573831 -0.12016243
v 0.31796652 -0.04317873 0.00941458
v 0.4224478 -0.0257383 -0.10837126
v 0.37060285 -0.04317871 0.00750172
v 0.4224478 -0.02573829 0.11875752
v 0.37060291 -0.0257383 0.1351659
v 0.47125852 -0.02573828 -0.09440714
v 0.42244786 -0.0431787 0.00519314
v 0.51532 -0.02573827 -0.07648844
v 0.47125858 -0.04317868 0.00281855
v 0.51532 -0.02573826 0.07737646
v 0.47125852 -0.02573827 0.10004428
v 0.55163741 -0.0237466 -0.05402851
v 0.51532 -0.04317867 0.00044399
v 0.57178217 -0.01411131 -0.03463963
v 0.55201364 -0.04048724 -0.00180596
v 0.57178217 -0.01411131 0.02840385
v 0.55163741 -0.0237466 0.05046788
v -0.33952668 0.08471737 0.43592742
v -0.3183288 0.06727698 0.47268721
v -0.30823651 0.06727698 0.43592742
v -0.37081683 0.06727697 0.43592742
v -0.35047612 0.08471739 0.47262126
v -0.3826234 0.06727698 0.47255528
v -0.36696619 0.08471737 0.51188755
v -0.33650562 0.06727697 0.51241523
v -0.36181241 0.06727698 0.5517081
v -0.39742675 0.06727696 0.51135987
v -0.38800755 0.08471739 0.55008107
v -0.41420269 0.06727697 0.54845405
v -0.41181925 0.08471736 0.58674598
v -0.39015338 0.06727696 0.58973622
v -0.4169223 0.06727696 0.62749851
v -0.43348509 0.06727695 0.58375579
v -0.43619162 0.08471737 0.62365085
v -0.45546091 0.06727696 0.61980319
v -0.45799151 0.08471736 0.66827303
v -0.43861228 0.06727695 0.67073554
v -0.45151854 0.06727695 0.72452623
v -0.47737074 0.06727694 0.66581053
v -0.47283259 0.08471736 0.72687876
v -0.49414667 0.06727695 0.72923142
v -0.47223896 0.08471736 0.7951808
v -0.45004541 0.06727695 0.78656197
v -0.43010339 0.06727696 0.85222554
v -0.49443251 0.06727694 0.80379963
v -0.44974646 0.08471737 0.86645103
v -0.46938953 0.06727697 0.88067651
v -0.41102773 0.08471737 0.93475294
v -0.39551818 0.06727697 0.91505277
v -0.35204726 0.06727699 0.96983594
v -0.42653728 0.06727697 0.95445317
v -0.36406395 0.08471742 0.99705261
v -0.37608063 0.06727701 1.02426922
v -0.31393403 0.08471742 1.06113315
v -0.30526018 0.06727701 1.01823902
v -0.26012594 0.06797463 1.04961443
v -0.32260787 0.06727701 1.10402703
v -0.26463607 0.08506624 1.13011241
v -0.26928484 0.06797464 1.20557761
v -0.21920078 0.0870816 1.18000913
v -0.21729034 0.07378812 0.97774899
v -0.36288422 0.06727697 0.4053193
v -0.33438176 0.08471739 0.4053193
v -0.30883211 0.06727698 0.38059324
v -0.33319446 0.08471737 0.38059324
v -0.35755679 0.06727696 0.38059324
v -0.35291788 0.06528532 0.36151114
v -0.3145898 0.06528534 0.36151114
v -0.33377096 0.08202595 0.36132303
v -0.33468702 0.06329367 0.34939885
v -0.3477672 0.05565003 0.35130683
v -0.18163423 0.08589952 0.9643265
v -0.21681255 0.07378815 1.32382417
v -0.1819059 0.0870041 1.19701815
v -0.17983027 0.08589955 1.34127021
v -0.15689324 0.06727708 1.19905639
v -0.15694824 0.06727707 0.96286541
v -0.15650809 0.06727709 1.34303474
v -0.17426091 0.08220048 1.43129659
v -0.15620786 0.06528543 1.43091357
v -0.19355728 0.06598303 1.42987943
v -0.18306959 0.05565013 1.47066164
v -0.16997409 0.06329376 1.47759962
v -0.15826622 0.05565014 1.47066164
v -0.20480356 0.06797466 0.62330401
v -0.18021323 0.08506622 0.62231332
v -0.1557781 0.06797466 0.62038976
v -0.17899612 0.08589951 0.28864151
v -0.20338431 0.06727701 0.29172504
v -0.20238999 0.06528535 0.08602393
v -0.14571913 0.07378813 0.26313412
v -0.17858903 0.08451503 0.08311585
v -0.14585105 0.08589951 0.0761984
v -0.17802864 0.06528536 -0.0137465
v -0.19757977 0.05565007 0.00361007
v -0.1458669 0.06727704 -0.01938665
v -0.11136571 0.08489183 0.06378219
v -0.11136961 0.06727704 -0.02546227
v -0.11111194 0.06797466 0.16047961
v -0.072519 0.06727707 0.14910462
v -0.07251894 0.08471746 0.05505922
v -0.072519 0.06727704 -0.03898621
v -0.02614886 0.08471747 0.04391184
v -0.02614883 0.06727706 -0.06160665
v -0.02614883 0.06727708 0.14943033
v 0.02299163 0.06727708 0.15100992
v 0.02299166 0.08471747 0.03236878
v 0.02299163 0.06727707 -0.08627236
v 0.06988946 0.0847175 0.02465138
v 0.06988946 0.06727709 -0.10563308
v 0.06988946 0.06727711 0.15493593
v 0.11639151 0.06727711 0.15924892
v 0.11639154 0.0847175 0.0197044
v 0.11639151 0.0672771 -0.11984015
v 0.16520226 0.08471753 0.01564777
v 0.16520226 0.06727712 -0.13028175
v 0.16520226 0.06727714 0.16157743
v 0.21559596 0.06727715 0.16095418
v 0.21559602 0.08471753 0.0125806
v 0.21559596 0.06727713 -0.13579279
v 0.26638544 0.08471756 0.01079968
v 0.2663855 0.06727715 -0.13514704
v 0.2663855 0.06727718 0.15674651
v 0.31796646 0.06727718 0.14825577
v 0.31796646 0.08471758 0.00941452
v 0.31796646 0.06727716 -0.12942666
v 0.37060285 0.06727719 -0.12016243
v 0.37060285 0.06727721 0.1351659
v 0.37060285 0.08471761 0.00750181
v 0.42244774 0.06727721 0.11875755
v 0.42244774 0.08471761 0.00519311
v 0.42244774 0.06727719 -0.10837126
v 0.47125834 0.06727722 -0.09440714
v 0.47125834 0.06727724 0.10004428
v 0.47125852 0.08471764 0.00281855
v 0.51531994 0.06727724 0.07737648
v 0.51531994 0.08471764 0.00044397
v 0.51531994 0.06727722 -0.07648849
v 0.55163735 0.06528559 -0.05402851
v 0.55163729 0.06528561 0.05046788
v 0.55201346 0.08202624 -0.00180599
v 0.57178223 0.05565031 0.02840385
v 0.57559806 0.06329394 -0.00337806
v 0.57178211 0.05565032 -0.03463963
v -0.32125992 -0.01411159 0.35130683
v -0.335051 0.02076922 0.34539482
v -0.31908423 0.02076923 0.34939885
v -0.34776717 -0.01411159 0.35130683
v -0.32125995 0.05565003 0.3513068
v -0.48463792 0.02076919 0.66488707
v -0.50213945 0.02076919 0.73011363
v -0.36002067 0.02076922 0.36132303
v -0.35028979 0.02076922 0.34939885
v -0.36669263 0.02076921 0.38059324
v 0.31796652 0.02076942 -0.18149209
v 0.2663855 0.02076939 -0.18987703
v -0.3250829 0.02076923 0.51261312
v -0.30627352 0.02076924 0.47271195
v -0.30752119 0.02076924 0.36132303
v -0.29969621 0.02076923 0.38059324
v 0.26638544 0.02076941 0.21147653
v 0.21559602 0.0207694 0.21659422
v 0.31796652 0.02076943 0.20032123
v -0.38970208 0.02076923 0.90766525
v -0.42273724 0.02076922 0.84689099
v -0.11136964 0.02076928 -0.05809432
v -0.07251897 0.0207693 -0.07425332
v -0.14586689 0.02076928 -0.05076683
v -0.14826478 0.02076932 1.19905639
v -0.14842781 0.02076934 1.34303474
v -0.14824145 0.02076931 0.96286535
v -0.50275505 0.02076919 0.80703169
v -0.47675568 0.0207692 0.88601106
v -0.1103943 0.02076929 0.19766337
v -0.13664475 0.02076929 0.31892401
v -0.07251894 0.0207693 0.18437165
v -0.38255063 0.02076921 0.43592742
v -0.39467865 0.02076921 0.47253054
v 0.4224478 0.02076945 -0.15095788
v 0.37060285 0.02076942 -0.16803652
v 0.37060285 0.02076944 0.18303996
v 0.42244786 0.02076947 0.16134414
v -0.30200747 0.02076927 1.00215387
v -0.34754097 0.02076925 0.95962977
v -0.02614883 0.0207693 -0.10117608
v 0.02299169 0.02076932 -0.13076288
v -0.16851807 0.02076933 1.49215996
v -0.1845791 0.02076933 1.47759962
v -0.16997407 -0.02175511 1.47759974
v -0.43235335 0.02076922 0.96184075
v -0.38058686 0.02076924 1.03447545
v -0.02614886 0.02076931 0.18899977
v -0.38202867 0.02076922 0.59085751
v -0.35198924 0.02076922 0.55231827
v -0.14957155 0.02076933 1.43159759
v -0.1553691 0.02076934 1.47759962
v 0.51532 0.02076948 -0.1053381
v 0.47125858 0.02076946 -0.13086683
v -0.40884945 0.0207692 0.51116198
v -0.42402583 0.0207692 0.54784393
v -0.22651781 0.02076931 1.34595203
v -0.2005083 0.02076931 1.43167448
v 0.47125858 0.02076948 0.13650393
v 0.51532 0.02076949 0.10622615
v -0.25910145 0.02076928 1.01888144
v -0.22660978 0.02076929 0.91673076
v 0.0698894 0.02076933 -0.15448976
v 0.11639151 0.02076935 -0.17216933
v 0.58360612 0.02076951 -0.00392401
v 0.57559812 0.02076951 0.03204301
v 0.57559812 -0.02175494 -0.00337806
v -0.32586056 0.02076927 1.12011242
v -0.27172077 0.02076928 1.23109746
v 0.02299166 0.02076934 0.19550034
v 0.0698894 0.02076934 0.2037926
v -0.43134505 0.02076921 0.67165899
v -0.40969631 0.02076921 0.62894142
v -0.21382295 0.02076927 0.61842024
v -0.21209106 0.02076926 0.29172504
v 0.55201364 0.02076949 -0.07304668
v 0.57559812 0.02076951 -0.03879917
v -0.44160977 0.02076919 0.58263445
v -0.46268687 0.02076919 0.61836028
v -0.14684838 0.02076929 0.62455469
v 0.55201364 0.02076951 0.06943464
v -0.37357262 0.02076921 0.4053193
v 0.16520226 0.02076936 -0.18500537
v 0.21559602 0.02076938 -0.19143289
v -0.17840485 0.02076926 -0.04344124
v -0.20139571 0.02076925 -0.00991917
v -0.29650271 0.02076924 0.43592742
v -0.29519087 0.02076924 0.4053193
v -0.30587929 0.067277 0.4053193
v 0.11639154 0.02076937 0.2115781
v 0.16520232 0.02076938 0.21630101
v -0.44172281 0.02076921 0.7833299
v -0.44352573 0.0207692 0.72364402
v -0.21074742 0.02076925 0.08469003
vn 0.7595 -0.58817 0.27788
vn 0.01185 -0.99993 -0.00098
vn 0.79512 -0.58954 0.14219
vn 0.72579 -0.56312 0.39512
vn 0.01634 -0.99977 0.01394
vn 0.02194 -0.99919 0.0337
vn -0.75306 -0.60006 -0.26987
vn -0.76742 -0.60038 -0.22498
vn 0.7045 -0.52242 0.48037
vn 0.71191 -0.48381 0.50903
vn 0.0185 -0.9989 0.04311
vn 0.00555 -0.99964 0.02624
vn -0.75193 -0.53628 -0.38341
vn -0.74972 -0.57868 -0.321
vn 0.75598 -0.47271 0.45282
vn 0.82202 -0.48305 0.30157
vn -0.01971 -0.99974 -0.01183
vn -0.0396 -0.9989 -0.0252
vn -0.78022 -0.46378 -0.41972
vn -0.75387 -0.48947 -0.43829
vn 0.85489 -0.50987 0.09589
vn 0.83213 -0.53992 -0.12668
vn -0.05478 -0.99823 -0.02335
vn -0.05996 -0.99819 -0.00417
vn -0.86658 -0.48662 -0.11065
vn -0.83238 -0.46537 -0.30095
vn 0.77421 -0.54361 -0.32417
vn 0.69732 -0.5458 -0.46458
vn -0.0372 -0.99925 0.01044
vn -0.02869 -0.99956 0.00735
vn -0.77772 -0.52284 0.34898
vn -0.84881 -0.5115 0.13373
vn 0.61266 -0.5772 -0.53989
vn 0.46193 -0.68434 -0.56418
vn -0.03014 -0.99954 -0.00149
vn -0.06917 -0.99759 0.00629
vn -0.67282 -0.56366 0.47917
vn -0.70754 -0.53185 0.46532
vn -0.05187 -0.92727 -0.37077
vn -0.12672 -0.99044 0.05459
vn -0.09065 -0.99579 0.01358
vn -0.66508 -0.67838 0.31219
vn -0.67167 -0.61576 0.41195
vn -0.79255 -0.58049 -0.18682
vn -0.81132 -0.54952 -0.19947
vn 0.01372 -0.99956 -0.02639
vn 0.82171 -0.53779 -0.18858
vn 0.82046 -0.57112 -0.02587
vn -0.74726 -0.47957 -0.46001
vn 0.0143 -0.99507 -0.09813
vn -0.01434 -0.3935 -0.91921
vn -0.00609 -0.88048 -0.47404
vn 0.73386 -0.4615 -0.49846
vn 0.15682 -0.98737 -0.02239
vn -0.62952 -0.76017 -0.16081
vn 0.84994 -0.52687 0.00048
vn 0.3017 -0.95304 0.0261
vn 0.85607 -0.51685 -0.00149
vn 0.135 -0.98943 0.05289
vn -0.66548 -0.71842 0.20251
vn 0.8609 -0.50877 -0.00106
vn 0.0168 -0.97894 0.20344
vn 0.82815 -0.40106 0.39156
vn 0.87429 -0.47776 0.08582
vn -0.76678 -0.39043 0.50952
vn -0.81993 -0.51314 0.25379
vn -0.83457 -0.55068 -0.01589
vn -0.85091 -0.52527 -0.00592
vn 0.00149 -1 -0.00022
vn -0.14237 -0.9898 0.00566
vn 0.83696 -0.54711 0.01275
vn -0.85469 -0.51614 -0.05576
vn -0.82042 -0.48875 -0.29672
vn -0.33991 -0.93819 -0.06519
vn -0.41853 -0.74752 -0.51579
vn 0.00609 -0.99944 -0.03296
vn 0.68163 -0.72497 0.09895
vn -0.12094 -0.83062 -0.54355
vn 0.01216 -0.99981 -0.0155
vn -0.13524 -0.84102 -0.52384
vn -0.00411 -0.99997 -0.00578
vn 0.07454 -0.86497 0.49626
vn 0.3801 -0.8595 0.34174
vn -0.20639 -0.843 -0.49675
vn -0.00826 -0.99993 -0.00817
vn -0.23799 -0.85022 -0.46956
vn -0.00768 -0.99992 -0.00967
vn -0.03206 -0.885 0.46448
vn -0.01464 -0.8658 0.50018
vn -0.21554 -0.86676 -0.44974
vn -0.0048 -0.99996 -0.00701
vn -0.16449 -0.88599 -0.43356
vn -0.00271 -0.99999 -0.00388
vn -0.0338 -0.90588 0.42219
vn -0.04368 -0.89729 0.43928
vn -0.11494 -0.901 -0.41832
vn -0.0014 -1 -0.00236
vn -0.07045 -0.9098 -0.40902
vn -0.00011 -1 -0.00097
vn 0.0209 -0.9153 0.40224
vn -0.01104 -0.91307 0.40766
vn -0.02037 -0.91308 -0.40728
vn 0.00215 -1 0.00013
vn 0.06666 -0.90414 -0.42201
vn 0.02961 -0.91125 -0.41078
vn 0.09393 -0.90189 0.42163
vn 0.05475 -0.91118 0.40836
vn 0.09749 -0.89085 -0.44371
vn 0.00332 -0.99999 0.00048
vn 0.13221 -0.87002 -0.47496
vn 0.00506 -0.99999 0.00054
vn 0.17521 -0.86545 0.46935
vn 0.13349 -0.88738 0.4413
vn 0.1944 -0.83457 -0.51546
vn 0.00756 -0.99997 0.0005
vn 0.31528 -0.77459 -0.54828
vn 0.01351 -0.99991 0.00085
vn 0.36526 -0.76588 0.52917
vn 0.24331 -0.82816 0.50492
vn 0.51136 -0.68102 -0.52415
vn 0.0615 -0.99811 0.00136
vn 0.82439 -0.43289 -0.36467
vn 0.34855 -0.93728 -0.00337
vn 0.83292 -0.40901 0.37277
vn 0.56312 -0.65802 0.49991
vn 0.01185 0.99993 -0.00098
vn 0.7595 0.58817 0.27788
vn 0.79512 0.58954 0.14219
vn -0.76742 0.60038 -0.22498
vn 0.01634 0.99977 0.01394
vn -0.75306 0.60006 -0.26987
vn 0.02194 0.99919 0.0337
vn 0.72579 0.56312 0.39512
vn 0.7045 0.52242 0.48037
vn -0.74972 0.57868 -0.321
vn 0.0185 0.9989 0.04311
vn -0.75193 0.53628 -0.38341
vn 0.00555 0.99964 0.02624
vn 0.71191 0.48381 0.50903
vn 0.75598 0.47271 0.45282
vn -0.75387 0.48947 -0.43829
vn -0.01971 0.99974 -0.01183
vn -0.78022 0.46378 -0.41972
vn -0.0396 0.9989 -0.0252
vn 0.82202 0.48305 0.30157
vn 0.85489 0.50988 0.09589
vn -0.83238 0.46537 -0.30095
vn -0.05478 0.99823 -0.02335
vn -0.86658 0.48661 -0.11065
vn -0.05996 0.99819 -0.00417
vn 0.83213 0.53992 -0.12668
vn 0.7742 0.54362 -0.32417
vn -0.84881 0.5115 0.13373
vn -0.0372 0.99925 0.01044
vn -0.77772 0.52284 0.34898
vn -0.02869 0.99956 0.00735
vn 0.69732 0.5458 -0.46458
vn 0.61266 0.5772 -0.53989
vn -0.70754 0.53185 0.46532
vn -0.03014 0.99954 -0.00149
vn -0.67282 0.56366 0.47917
vn -0.06917 0.99759 0.00629
vn 0.46193 0.68434 -0.56418
vn -0.05187 0.92727 -0.37077
vn -0.67167 0.61576 0.41195
vn -0.09065 0.99579 0.01358
vn -0.66509 0.67838 0.31219
vn -0.12672 0.99043 0.05459
vn -0.62952 0.76017 -0.16081
vn -0.79255 0.58049 -0.18682
vn 0.01372 0.99956 -0.02639
vn 0.82171 0.53779 -0.18858
vn 0.01429 0.99507 -0.09813
vn -0.81132 0.54952 -0.19947
vn -0.74726 0.47957 -0.46001
vn 0.73386 0.4615 -0.49846
vn -0.00609 0.88048 -0.47404
vn -0.01434 0.3935 -0.91921
vn -0.53393 0.24225 -0.81008
vn 0.15682 0.98737 -0.02239
vn -0.66548 0.71842 0.20251
vn 0.3017 0.95304 0.0261
vn 0.135 0.98943 0.05289
vn 0.85607 0.51685 -0.00149
vn 0.84994 0.52687 0.00048
vn 0.8609 0.50877 -0.00106
vn 0.0168 0.97894 0.20344
vn 0.87429 0.47776 0.08582
vn -0.81993 0.51314 0.25379
vn -0.76678 0.39043 0.50952
vn 0.03423 0.69487 0.71832
vn 0.82815 0.40106 0.39156
vn -0.83457 0.55068 -0.01589
vn 0.00149 1 -0.00023
vn 0.83696 0.54712 0.01275
vn -0.14237 0.9898 0.00566
vn -0.85091 0.52527 -0.00592
vn -0.85469 0.51614 -0.05576
vn 0.68163 0.72497 0.09895
vn -0.33991 0.93819 -0.06519
vn 0.00609 0.99944 -0.03296
vn -0.41853 0.74752 -0.51579
vn -0.82042 0.48875 -0.29672
vn -0.12094 0.83062 -0.54355
vn 0.01216 0.99981 -0.0155
vn -0.13524 0.84101 -0.52384
vn 0.3801 0.8595 0.34174
vn 0.07454 0.86497 0.49626
vn -0.00412 0.99997 -0.00578
vn -0.20639 0.843 -0.49675
vn -0.00826 0.99993 -0.00817
vn -0.23799 0.85022 -0.46956
vn -0.01464 0.8658 0.50018
vn -0.03206 0.885 0.46448
vn -0.00768 0.99992 -0.00967
vn -0.21554 0.86676 -0.44974
vn -0.0048 0.99996 -0.00701
vn -0.16449 0.88598 -0.43356
vn -0.04368 0.89729 0.43928
vn -0.0338 0.90588 0.42219
vn -0.00271 0.99999 -0.00388
vn -0.11494 0.901 -0.41832
vn -0.0014 1 -0.00236
vn -0.07045 0.9098 -0.40902
vn -0.01104 0.91307 0.40766
vn 0.0209 0.9153 0.40224
vn -0.00011 1 -0.00097
vn -0.02037 0.91308 -0.40728
vn 0.00215 1 0.00013
vn 0.02961 0.91125 -0.41078
vn 0.05475 0.91118 0.40836
vn 0.09393 0.90189 0.42163
vn 0.00332 0.99999 0.00048
vn 0.06666 0.90414 -0.42201
vn 0.09749 0.89085 -0.44371
vn 0.13348 0.88738 0.4413
vn 0.00506 0.99999 0.00054
vn 0.17521 0.86545 0.46935
vn 0.00756 0.99997 0.0005
vn 0.13221 0.87002 -0.47496
vn 0.1944 0.83457 -0.51546
vn 0.24331 0.82816 0.50492
vn 0.01351 0.99991 0.00085
vn 0.36526 0.76588 0.52917
vn 0.0615 0.99811 0.00136
vn 0.31528 0.77459 -0.54828
vn 0.51136 0.68102 -0.52414
vn 0.56312 0.65802 0.49991
vn 0.34855 0.93728 -0.00337
vn 0.83292 0.40902 0.37277
vn 0.84067 0.54151 -0.00639
vn 0.82439 0.43289 -0.36467
vn 0.49357 -0.23298 -0.83792
vn -0.00653 -0 -0.99998
vn 0.50362 -0 -0.86392
vn -0.53393 -0.24225 -0.81008
vn 0.49357 0.23299 -0.83792
vn -0.9399 -0 -0.34145
vn -0.9915 -0 -0.13009
vn -0.88206 -0 -0.47113
vn -0.54603 -0 -0.83777
vn -0.96044 -0 -0.2785
vn 0.18973 0 -0.98184
vn 0.08942 0 -0.99599
vn 0.87292 0 0.48787
vn 0.94038 0 0.34013
vn 0.85333 0 -0.52138
vn 0.96375 0 -0.26682
vn 0.14852 -0 0.98891
vn 0.04955 -0 0.99877
vn 0.24562 0 0.96936
vn 0.83211 0 -0.55461
vn 0.92392 0 -0.38258
vn -0.29438 0 -0.95569
vn -0.43679 0 -0.89956
vn -0.2069 -0 -0.97836
vn 1 0 -0.0009
vn 1 0 0.0027
vn 1 0 0.00196
vn -0.98754 -0 0.15737
vn -0.91095 -0 0.41253
vn 0.82781 0 0.56101
vn 0.99706 0 0.0766
vn 0.14231 0 0.98982
vn -0.95486 -0 -0.29706
vn -0.94286 -0 -0.33318
vn 0.32054 0 -0.94724
vn 0.25961 -0 -0.96571
vn 0.32714 -0 0.94498
vn 0.39343 0 0.91935
vn 0.55986 0 -0.82859
vn 0.73653 0 -0.6764
vn -0.4921 -0 -0.87054
vn -0.46085 -0 -0.88748
vn 0.05446 -0 0.99852
vn -0.82227 -0 0.5691
vn 0.03423 -0.69487 0.71832
vn -0.83723 -0 0.54685
vn -0.82511 0 0.56497
vn -0.09405 0 0.99557
vn 0.80187 0 0.5975
vn 0.81368 0 0.58131
vn 0.99824 0 0.05926
vn 0.89776 -0 0.44049
vn 0.53992 0 -0.84171
vn 0.40702 0 -0.91342
vn -0.9284 -0 -0.37157
vn -0.90498 -0 -0.42546
vn -0.95534 -0 0.29552
vn -0.95469 -0 0.2976
vn 0.47659 0 0.87913
vn 0.59866 0 0.801
vn -0.42304 0 -0.90611
vn -0.99475 -0 -0.10233
vn -0.38193 -0 -0.92419
vn -0.28889 0 -0.95736
vn 0.99999 0 -0.0043
vn 0.9129 -0 0.40819
vn 0.84067 -0.54151 -0.00639
vn -0.87057 -0 0.49204
vn -0.91362 -0 0.40656
vn -0.13501 0 0.99084
vn -0.15474 -0 0.98796
vn 0.93896 0 0.34401
vn 0.85335 0 0.52135
vn -0.99974 -0 -0.02261
vn -0.99998 -0 -0.00596
vn 0.69405 0 -0.71993
vn 0.91233 0 -0.40947
vn -0.87504 -0 -0.48406
vn -0.88393 -0 -0.46761
vn 0.99984 0 0.01782
vn 0.74566 0 0.66633
vn -0.96309 -0 -0.26917
vn -0.18165 -0 -0.98336
vn -0.04635 0 -0.99893
vn -0.50761 -0 -0.86159
vn -0.91456 -0 -0.40446
vn 0.98803 0 0.15427
vn 0.99771 0 -0.06758
vn 0.82046 0.57112 -0.02587
vn -0.11922 0 0.99287
vn -0.05003 -0 0.99875
vn 0.98802 0 -0.1543
vn 0.99454 0 0.10432
vn -0.99893 -0 -0.0463
vt 0 0.5
vt 0.5 0
vt 0 0
vt 0 1
vt 0.5 0.5
vt 0.5 1
vt 1 0.5
vt 1 0
vt 0.16667 0.98264
vt 0.5 0.95833
vt 0.16667 0.83333
vt 0.16667 1
vt 0.5 0.99306
vt 0.5 1
vt 0.83333 0.98264
vt 0.83333 0.83333
vt 0.16667 1
vt 0.5 1
vt 0.16667 1
vt 0.83333 1
vt 0.83333 1
vt 0.16167 1
vt 0.5 1
vt 0.83833 1
vt 0.83333 0.01736
vt 0.5 0.04167
vt 0.83333 0.16667
vt 0.83333 0
vt 0.5 0.00694
vt 0.16667 0
vt 0.16667 0.01736
vt 0.16667 0.16667
vt 0.81906 0
vt 0.5 0
vt 0.18094 0
vt 0.16167 1
vt 0.12 1
vt 0.83833 1
vt 0.88 1
vt 0.98042 1
vt 0.83833 1
vt 1 1
vt 0.97917 1
vt 0.98764 1
vt 0.01236 1
vt 0 1
vt 0.01958 1
vt 0.02083 1
vt 0.5 0.16667
vt 0.16667 0.5
vt 0.83333 0.5
vt 0.5 0.83333
vt 0.16667 0.97917
vt 0.5 0.97917
vt 0.83333 0.97917
vt 0.16167 1
vt 0.83333 0.02083
vt 0.5 0.02083
vt 0.16667 0
vt 0.83333 0
vt 0.18094 0
vt 0.75 0
vt 0.83833 1
vt 0.98042 1
vt 0.97917 1
vt 0.98764 1
vt 0.01958 1
vt 0.25 0
vt 0.19522 0
vt 0.5 0
vt 0.95833 1
vt 0.95833 1
vt 0.83333 1
vt 0.93904 0
vt 0.80478 0
vt 0.95833 0
vt 0.04167 0.5
vt 0.03819 0.83333
vt 0.02778 0.5
vt 0.16667 0.16667
vt 0.16667 0.5
vt 0.16667 0.83333
vt 0.06096 0
vt 0.04167 0
vt 0.04167 1
vt 0.95833 0.5
vt 0.96181 0.16667
vt 0.97222 0.5
vt 0.83333 0.5
vt 0.83333 0.16667
vt 1 1
vt 0.16667 0.98264
vt 0.04167 1
vt 0.04167 0.97917
vt 0.16667 0.97917
vt 0.97917 1
vt 0.83333 1
vt 0.96181 0.83333
vt 0.95833 0.97917
vt 0.83333 0.97917
vt 0.97528 1
vt 0.99556 1
vt 0.03917 1
vt 0.02472 1
vt 0 1
vt 0.95833 1
vt 0.96083 1
vt 0.83833 1
vt 0.00444 1
vt 0.01236 1
vt 0.01236 1
vt 0.02083 1
vt 0.83333 0.01736
vt 0.95833 0.02083
vt 0.83333 0.02083
vt 0.03819 0.16667
vt 0.04167 0.02083
vt 0.16667 0.02083
usemtl mat0
f 1/1/1 2/2/2 3/3/3
f 4/4/4 5/5/5 1/1/1
f 6/6/6 7/7/7 5/5/5
f 5/5/5 8/8/8 2/2/2
f 9/9/9 6/10/6 4/11/4
f 10/12/10 11/13/11 9/9/9
f 12/14/12 13/15/13 11/13/11
f 11/13/11 14/16/14 6/10/6
f 15/17/15 12/18/12 10/19/10
f 16/19/16 17/6/17 15/17/15
f 18/18/18 19/20/19 17/6/17
f 17/6/17 20/21/20 12/18/12
f 21/17/21 18/18/18 16/19/16
f 22/19/22 23/6/23 21/17/21
f 24/18/24 25/20/25 23/6/23
f 23/6/23 26/21/26 18/18/18
f 27/17/27 24/18/24 22/19/22
f 28/19/28 29/6/29 27/17/27
f 30/18/30 31/20/31 29/6/29
f 29/6/29 32/21/32 24/18/24
f 33/17/33 30/18/30 28/19/28
f 34/19/34 35/6/35 33/17/33
f 36/18/36 37/20/37 35/6/35
f 35/6/35 38/21/38 30/18/30
f 39/22/39 36/14/36 34/12/34
f 39/22/39 40/6/40 41/23/41
f 40/6/40 42/24/42 41/23/41
f 41/23/41 43/21/43 36/14/36
f 44/25/44 2/26/2 8/27/8
f 45/28/45 46/29/46 44/25/44
f 46/29/46 47/30/47 48/31/48
f 46/29/46 3/32/3 2/26/2
f 49/33/49 50/34/50 45/28/45
f 49/33/49 51/2/51 52/2/52
f 51/2/51 53/35/53 52/2/52
f 50/34/50 53/35/53 47/30/47
f 54/36/54 40/6/40 55/37/55
f 56/12/56 57/14/57 54/36/54
f 58/14/58 59/38/59 57/14/57
f 57/14/57 60/39/60 40/6/40
f 61/21/61 62/40/62 59/41/59
f 63/42/63 62/40/62 64/43/64
f 62/40/62 65/42/65 66/44/66
f 59/41/59 66/44/66 60/39/60
f 67/45/67 54/36/54 55/37/55
f 68/46/68 69/47/69 67/45/67
f 70/4/70 71/48/71 69/47/69
f 69/47/69 56/12/56 54/36/54
f 72/4/72 70/4/70 68/46/68
f 73/4/73 74/46/74 72/4/72
f 75/46/75 76/46/76 74/46/74
f 74/46/74 77/46/77 70/4/70
f 78/46/78 79/46/79 76/4/76
f 80/46/80 81/46/81 79/46/79
f 79/46/79 82/46/82 83/46/83
f 76/4/76 83/46/83 77/46/77
f 84/46/84 85/4/85 81/4/81
f 86/4/86 87/4/87 85/4/85
f 85/4/85 88/46/88 89/4/89
f 81/4/81 89/4/89 82/46/82
f 90/46/90 91/4/91 87/4/87
f 92/4/92 93/4/93 91/4/91
f 91/4/91 94/46/94 95/4/95
f 87/4/87 95/4/95 88/46/88
f 96/46/96 97/4/97 93/4/93
f 98/4/98 99/4/99 97/4/97
f 97/4/97 100/46/100 101/4/101
f 93/4/93 101/4/101 94/46/94
f 102/46/102 103/4/103 99/4/99
f 104/46/104 103/4/103 105/4/105
f 103/4/103 106/46/106 107/4/107
f 99/4/99 107/4/107 100/46/100
f 108/4/108 109/4/109 104/46/104
f 110/46/110 111/4/111 108/4/108
f 111/4/111 112/46/112 113/4/113
f 109/4/109 113/4/113 106/46/106
f 114/4/114 115/4/115 110/46/110
f 116/46/116 117/4/117 114/4/114
f 117/4/117 118/46/118 119/4/119
f 115/4/115 119/4/119 112/46/112
f 120/4/120 121/46/121 116/46/116
f 122/4/122 123/46/123 120/4/120
f 123/46/123 124/4/124 125/4/125
f 121/46/121 125/4/125 118/46/118
f 126/49/126 127/50/127 128/32/128
f 129/27/129 130/5/130 126/49/126
f 131/51/131 132/52/132 130/5/130
f 130/5/130 133/11/133 127/50/127
f 132/52/132 134/53/134 133/11/133
f 135/16/135 136/54/136 132/52/132
f 137/55/137 138/6/138 136/54/136
f 136/54/136 139/19/139 134/53/134
f 138/6/138 140/17/140 139/19/139
f 141/21/141 142/6/142 138/6/138
f 143/20/143 144/6/144 142/6/142
f 142/6/142 145/19/145 140/17/140
f 144/6/144 146/17/146 145/19/145
f 147/21/147 148/6/148 144/6/144
f 149/20/149 150/6/150 148/6/148
f 148/6/148 151/19/151 146/17/146
f 150/6/150 152/17/152 151/19/151
f 153/21/153 154/6/154 150/6/150
f 155/20/155 156/6/156 154/6/154
f 154/6/154 157/19/157 152/17/152
f 156/6/156 158/17/158 157/19/157
f 159/21/159 160/6/160 156/6/156
f 161/20/161 162/6/162 160/6/160
f 160/6/160 163/19/163 158/17/158
f 162/14/162 164/56/164 163/12/163
f 165/21/165 166/23/166 162/14/162
f 167/41/167 168/6/168 166/23/166
f 164/56/164 168/6/168 169/37/169
f 126/49/126 170/57/170 129/27/129
f 128/32/128 171/58/171 126/49/126
f 171/58/171 172/59/172 173/2/173
f 171/58/171 174/28/174 170/57/170
f 173/2/173 175/33/175 174/60/174
f 173/2/173 176/61/176 177/2/177
f 176/61/176 178/2/178 177/2/177
f 175/33/175 178/2/178 179/62/179
f 168/6/168 180/36/180 169/37/169
f 181/39/181 182/14/182 168/6/168
f 183/63/183 184/14/184 182/14/182
f 182/14/182 185/12/185 180/36/180
f 186/21/186 187/64/187 188/65/188
f 183/24/183 189/66/189 187/64/187
f 187/64/187 190/42/190 191/42/191
f 187/64/187 192/42/192 188/65/188
f 180/36/180 193/45/193 169/37/169
f 185/12/185 194/67/194 180/36/180
f 195/48/195 196/4/196 194/67/194
f 194/67/194 197/46/197 193/45/193
f 196/4/196 198/46/198 197/46/197
f 199/46/199 200/46/200 196/4/196
f 201/46/201 202/46/202 200/46/200
f 200/46/200 203/4/203 198/46/198
f 204/46/204 205/46/205 206/46/206
f 201/4/201 207/46/207 205/46/205
f 205/46/205 208/46/208 209/46/209
f 206/46/206 209/46/209 210/46/210
f 210/46/210 211/4/211 212/4/212
f 209/4/209 213/4/213 211/4/211
f 211/4/211 214/46/214 215/4/215
f 212/4/212 215/4/215 216/46/216
f 216/46/216 217/4/217 218/4/218
f 215/4/215 219/4/219 217/4/217
f 217/4/217 220/46/220 221/4/221
f 218/4/218 221/4/221 222/46/222
f 222/46/222 223/4/223 224/4/224
f 221/4/221 225/4/225 223/4/223
f 223/4/223 226/46/226 227/4/227
f 224/4/224 227/4/227 228/46/228
f 228/46/228 229/4/229 230/4/230
f 227/4/227 231/4/231 229/4/229
f 229/4/229 232/46/232 233/4/233
f 229/4/229 234/46/234 230/4/230
f 233/4/233 235/4/235 234/46/234
f 233/4/233 236/4/236 237/4/237
f 237/4/237 238/46/238 239/4/239
f 237/4/237 240/46/240 235/4/235
f 239/4/239 241/4/241 240/46/240
f 239/4/239 242/4/242 243/4/243
f 243/4/243 244/46/244 245/4/245
f 243/4/243 246/46/246 241/4/241
f 245/46/245 247/46/247 246/46/246
f 245/46/245 248/46/248 249/4/249
f 249/4/249 250/4/250 251/4/251
f 249/4/249 252/4/252 247/46/247
f 253/68/253 254/2/254 255/69/255
f 256/62/256 254/2/254 51/70/51
f 254/2/254 179/62/179 178/70/178
f 254/2/254 257/68/257 255/69/255
f 25/20/25 258/71/258 26/21/26
f 32/21/32 259/72/259 25/20/25
f 259/72/259 153/21/153 149/73/149
f 258/71/258 149/73/149 147/21/147
f 256/62/256 260/74/260 261/75/261
f 49/33/49 262/76/262 260/74/260
f 262/76/262 175/33/175 260/74/260
f 260/74/260 179/62/179 261/75/261
f 105/4/105 263/4/263 104/46/104
f 102/46/102 264/4/264 105/4/105
f 264/4/264 228/46/228 230/4/230
f 263/4/263 230/4/230 234/46/234
f 1/77/1 265/78/265 4/11/4
f 3/32/3 266/79/266 1/77/1
f 266/79/266 128/80/128 127/81/127
f 265/78/265 127/81/127 133/82/133
f 47/30/47 267/83/267 268/84/268
f 253/68/253 267/83/267 53/35/53
f 267/83/267 257/68/257 176/61/176
f 267/83/267 172/30/172 268/84/268
f 100/46/100 269/4/269 270/4/270
f 107/4/107 271/4/271 269/4/269
f 271/4/271 231/4/231 269/4/269
f 269/4/269 226/46/226 270/4/270
f 27/17/27 272/85/272 28/19/28
f 22/19/22 273/85/273 27/17/27
f 273/85/273 151/19/151 152/17/152
f 272/85/272 152/17/152 157/19/157
f 84/46/84 274/4/274 275/4/275
f 80/4/80 276/4/276 274/4/274
f 276/4/276 206/4/206 274/4/274
f 274/4/274 210/46/210 275/4/275
f 61/21/61 277/6/277 278/73/278
f 58/6/58 279/17/279 277/6/277
f 279/17/279 184/6/184 277/6/277
f 277/6/277 186/21/186 278/73/278
f 31/20/31 280/71/280 32/21/32
f 38/21/38 281/72/281 31/20/31
f 281/72/281 159/21/159 155/73/155
f 280/71/280 155/73/155 153/21/153
f 77/46/77 282/46/282 283/46/283
f 83/46/83 284/46/284 282/46/282
f 284/46/284 207/46/207 282/46/282
f 282/46/282 199/46/199 283/46/283
f 7/86/7 285/87/285 8/27/8
f 14/16/14 286/88/286 7/86/7
f 286/88/286 135/16/135 131/89/131
f 285/87/285 131/89/131 129/90/129
f 108/4/108 287/4/287 110/46/110
f 104/46/104 288/4/288 108/4/108
f 288/4/288 234/46/234 235/4/235
f 287/4/287 235/4/235 240/46/240
f 106/46/106 289/4/289 271/4/271
f 113/4/113 290/4/290 289/4/289
f 290/4/290 236/4/236 289/4/289
f 289/4/289 232/46/232 271/4/271
f 33/17/33 291/85/291 34/19/34
f 28/19/28 292/85/292 33/17/33
f 292/85/292 157/19/157 158/17/158
f 291/85/291 158/17/158 163/19/163
f 90/46/90 293/4/293 294/4/294
f 86/4/86 275/4/275 293/4/293
f 275/4/275 212/4/212 293/4/293
f 293/4/293 216/46/216 294/4/294
f 65/42/65 295/91/295 296/42/296
f 63/42/63 295/91/295 297/42/297
f 295/91/295 192/42/192 191/42/191
f 295/91/295 190/42/190 296/42/296
f 37/20/37 298/71/298 38/21/38
f 43/21/43 299/72/299 37/20/37
f 299/72/299 165/21/165 161/73/161
f 298/71/298 161/73/161 159/21/159
f 89/4/89 284/4/284 82/46/82
f 88/46/88 300/4/300 89/4/89
f 300/4/300 214/46/214 213/4/213
f 284/4/284 213/4/213 208/46/208
f 9/92/9 301/93/301 10/12/10
f 4/11/4 302/94/302 9/92/9
f 302/94/302 133/82/133 134/95/134
f 301/93/301 134/95/134 139/12/139
f 63/42/63 303/96/303 304/42/304
f 64/96/64 278/97/278 303/96/303
f 278/97/278 188/96/188 303/96/303
f 303/96/303 192/42/192 304/42/304
f 114/4/114 305/4/305 116/46/116
f 110/46/110 306/4/306 114/4/114
f 306/4/306 240/46/240 241/4/241
f 305/4/305 241/4/241 246/46/246
f 13/15/13 307/98/307 14/16/14
f 20/21/20 308/99/308 13/15/13
f 308/99/308 141/21/141 137/100/137
f 307/98/307 137/100/137 135/16/135
f 66/44/66 309/101/309 60/39/60
f 65/42/65 310/102/310 66/44/66
f 310/102/310 190/42/190 189/66/189
f 309/101/309 189/66/189 181/39/181
f 112/46/112 311/4/311 290/4/290
f 119/4/119 312/4/312 311/4/311
f 312/4/312 242/4/242 311/4/311
f 311/4/311 238/46/238 290/4/290
f 55/37/55 313/103/313 314/104/314
f 34/12/34 313/103/313 39/36/39
f 313/103/313 163/12/163 164/36/164
f 313/103/313 169/37/169 314/104/314
f 96/46/96 315/4/315 316/4/316
f 92/4/92 294/4/294 315/4/315
f 294/4/294 218/4/218 315/4/315
f 315/4/315 222/46/222 316/4/316
f 124/4/124 317/105/317 318/4/318
f 122/4/122 317/105/317 319/4/319
f 317/105/317 252/4/252 251/4/251
f 317/105/317 250/4/250 318/4/318
f 42/24/42 320/106/320 43/21/43
f 60/39/60 321/107/321 42/24/42
f 321/107/321 181/39/181 167/108/167
f 320/106/320 167/108/167 165/21/165
f 95/4/95 322/4/322 88/46/88
f 94/46/94 323/4/323 95/4/95
f 323/4/323 220/46/220 219/4/219
f 322/4/322 219/4/219 214/46/214
f 15/17/15 324/85/324 16/19/16
f 10/19/10 325/85/325 15/17/15
f 325/85/325 139/19/139 140/17/140
f 324/85/324 140/17/140 145/19/145
f 68/46/68 326/109/326 327/46/327
f 67/110/67 314/104/314 326/109/326
f 314/104/314 193/111/193 326/109/326
f 326/109/326 197/46/197 327/46/327
f 122/4/122 328/46/328 329/4/329
f 116/46/116 328/46/328 120/46/120
f 328/46/328 246/46/246 247/46/247
f 328/46/328 252/4/252 329/4/329
f 19/20/19 330/71/330 20/21/20
f 26/21/26 331/72/331 19/20/19
f 331/72/331 147/21/147 143/73/143
f 330/71/330 143/73/143 141/21/141
f 56/12/56 332/112/332 279/12/279
f 71/48/71 283/46/283 332/112/332
f 283/46/283 195/48/195 332/112/332
f 332/112/332 185/12/185 279/12/279
f 118/46/118 333/46/333 312/46/312
f 125/4/125 318/4/318 333/46/333
f 318/4/318 248/46/248 333/46/333
f 333/46/333 244/46/244 312/46/312
f 44/113/44 262/76/262 45/28/45
f 8/27/8 334/114/334 44/113/44
f 334/114/334 129/90/129 170/115/170
f 262/76/262 170/115/170 174/28/174
f 102/46/102 335/4/335 336/4/336
f 98/4/98 316/4/316 335/4/335
f 316/4/316 224/4/224 335/4/335
f 335/4/335 228/46/228 336/4/336
f 78/46/78 337/46/337 276/46/276
f 75/4/75 338/4/338 337/46/337
f 338/4/338 202/46/202 337/46/337
f 337/46/337 204/46/204 276/46/276
f 48/31/48 339/116/339 3/32/3
f 48/31/48 268/84/268 340/117/340
f 268/84/268 341/118/341 340/117/340
f 339/116/339 341/118/341 128/80/128
f 101/4/101 342/4/342 94/46/94
f 101/4/101 270/4/270 343/4/343
f 270/4/270 225/4/225 343/4/343
f 342/4/342 225/4/225 220/46/220
f 21/17/21 344/85/344 22/19/22
f 16/19/16 345/85/345 21/17/21
f 345/85/345 145/19/145 146/17/146
f 344/85/344 146/17/146 151/19/151
f 73/4/73 346/46/346 338/4/338
f 72/46/72 327/46/327 346/46/346
f 327/46/327 198/46/198 346/46/346
f 346/46/346 203/4/203 338/4/338
f 1/1/1 5/5/5 2/2/2
f 4/4/4 6/6/6 5/5/5
f 6/6/6 14/42/14 7/7/7
f 5/5/5 7/7/7 8/8/8
f 9/9/9 11/13/11 6/10/6
f 10/12/10 12/14/12 11/13/11
f 12/14/12 20/21/20 13/15/13
f 11/13/11 13/15/13 14/16/14
f 15/17/15 17/6/17 12/18/12
f 16/19/16 18/18/18 17/6/17
f 18/18/18 26/21/26 19/20/19
f 17/6/17 19/20/19 20/21/20
f 21/17/21 23/6/23 18/18/18
f 22/19/22 24/18/24 23/6/23
f 24/18/24 32/21/32 25/20/25
f 23/6/23 25/20/25 26/21/26
f 27/17/27 29/6/29 24/18/24
f 28/19/28 30/18/30 29/6/29
f 30/18/30 38/21/38 31/20/31
f 29/6/29 31/20/31 32/21/32
f 33/17/33 35/6/35 30/18/30
f 34/19/34 36/18/36 35/6/35
f 36/18/36 43/21/43 37/20/37
f 35/6/35 37/20/37 38/21/38
f 39/22/39 41/23/41 36/14/36
f 39/22/39 55/37/55 40/6/40
f 40/6/40 60/39/60 42/24/42
f 41/23/41 42/24/42 43/21/43
f 44/25/44 46/29/46 2/26/2
f 45/28/45 50/34/50 46/29/46
f 46/29/46 50/34/50 47/30/47
f 46/29/46 48/31/48 3/32/3
f 49/33/49 52/2/52 50/34/50
f 49/33/49 256/62/256 51/2/51
f 51/2/51 253/68/253 53/35/53
f 50/34/50 52/2/52 53/35/53
f 54/36/54 57/14/57 40/6/40
f 56/12/56 58/14/58 57/14/57
f 58/14/58 61/21/61 59/38/59
f 57/14/57 59/38/59 60/39/60
f 61/21/61 64/43/64 62/40/62
f 63/42/63 297/42/297 62/40/62
f 62/40/62 297/42/297 65/42/65
f 59/41/59 62/40/62 66/44/66
f 67/45/67 69/47/69 54/36/54
f 68/46/68 70/4/70 69/47/69
f 70/4/70 77/46/77 71/48/71
f 69/47/69 71/48/71 56/12/56
f 72/4/72 74/46/74 70/4/70
f 73/4/73 75/46/75 74/46/74
f 75/46/75 78/46/78 76/46/76
f 74/46/74 76/46/76 77/46/77
f 78/46/78 80/46/80 79/46/79
f 80/46/80 84/46/84 81/46/81
f 79/46/79 81/46/81 82/46/82
f 76/4/76 79/46/79 83/46/83
f 84/46/84 86/4/86 85/4/85
f 86/4/86 90/46/90 87/4/87
f 85/4/85 87/4/87 88/46/88
f 81/4/81 85/4/85 89/4/89
f 90/46/90 92/4/92 91/4/91
f 92/4/92 96/46/96 93/4/93
f 91/4/91 93/4/93 94/46/94
f 87/4/87 91/4/91 95/4/95
f 96/46/96 98/4/98 97/4/97
f 98/4/98 102/46/102 99/4/99
f 97/4/97 99/4/99 100/46/100
f 93/4/93 97/4/97 101/4/101
f 102/46/102 105/4/105 103/4/103
f 104/46/104 109/4/109 103/4/103
f 103/4/103 109/4/109 106/46/106
f 99/4/99 103/4/103 107/4/107
f 108/4/108 111/4/111 109/4/109
f 110/46/110 115/4/115 111/4/111
f 111/4/111 115/4/115 112/46/112
f 109/4/109 111/4/111 113/4/113
f 114/4/114 117/4/117 115/4/115
f 116/46/116 121/4/121 117/4/117
f 117/4/117 121/4/121 118/46/118
f 115/4/115 117/4/117 119/4/119
f 120/4/120 123/46/123 121/46/121
f 122/4/122 319/4/319 123/46/123
f 123/46/123 319/4/319 124/4/124
f 121/46/121 123/46/123 125/4/125
f 126/49/126 130/5/130 127/50/127
f 129/27/129 131/51/131 130/5/130
f 131/51/131 135/16/135 132/52/132
f 130/5/130 132/52/132 133/11/133
f 132/52/132 136/54/136 134/53/134
f 135/16/135 137/55/137 136/54/136
f 137/55/137 141/21/141 138/6/138
f 136/54/136 138/6/138 139/19/139
f 138/6/138 142/6/142 140/17/140
f 141/21/141 143/20/143 142/6/142
f 143/20/143 147/21/147 144/6/144
f 142/6/142 144/6/144 145/19/145
f 144/6/144 148/6/148 146/17/146
f 147/21/147 149/20/149 148/6/148
f 149/20/149 153/21/153 150/6/150
f 148/6/148 150/6/150 151/19/151
f 150/6/150 154/6/154 152/17/152
f 153/21/153 155/20/155 154/6/154
f 155/20/155 159/21/159 156/6/156
f 154/6/154 156/6/156 157/19/157
f 156/6/156 160/6/160 158/17/158
f 159/21/159 161/20/161 160/6/160
f 161/20/161 165/21/165 162/6/162
f 160/6/160 162/6/162 163/19/163
f 162/14/162 166/23/166 164/56/164
f 165/21/165 167/41/167 166/23/166
f 167/41/167 181/39/181 168/6/168
f 164/56/164 166/23/166 168/6/168
f 126/49/126 171/58/171 170/57/170
f 128/32/128 341/118/341 171/58/171
f 171/58/171 341/118/341 172/59/172
f 171/58/171 173/2/173 174/28/174
f 173/2/173 177/2/177 175/33/175
f 173/2/173 172/30/172 176/61/176
f 176/61/176 257/68/257 178/2/178
f 175/33/175 177/2/177 178/2/178
f 168/6/168 182/14/182 180/36/180
f 181/39/181 183/63/183 182/14/182
f 183/63/183 186/21/186 184/14/184
f 182/14/182 184/14/184 185/12/185
f 186/21/186 183/24/183 187/64/187
f 183/24/183 181/39/181 189/66/189
f 187/64/187 189/66/189 190/42/190
f 187/64/187 191/42/191 192/42/192
f 180/36/180 194/67/194 193/45/193
f 185/12/185 195/48/195 194/67/194
f 195/48/195 199/46/199 196/4/196
f 194/67/194 196/4/196 197/46/197
f 196/4/196 200/46/200 198/46/198
f 199/46/199 201/46/201 200/46/200
f 201/46/201 204/46/204 202/46/202
f 200/46/200 202/46/202 203/4/203
f 204/46/204 201/4/201 205/46/205
f 201/4/201 199/46/199 207/46/207
f 205/46/205 207/46/207 208/46/208
f 206/46/206 205/46/205 209/46/209
f 210/46/210 209/4/209 211/4/211
f 209/4/209 208/46/208 213/4/213
f 211/4/211 213/4/213 214/46/214
f 212/4/212 211/4/211 215/4/215
f 216/46/216 215/4/215 217/4/217
f 215/4/215 214/46/214 219/4/219
f 217/4/217 219/4/219 220/46/220
f 218/4/218 217/4/217 221/4/221
f 222/46/222 221/4/221 223/4/223
f 221/4/221 220/46/220 225/4/225
f 223/4/223 225/4/225 226/46/226
f 224/4/224 223/4/223 227/4/227
f 228/46/228 227/4/227 229/4/229
f 227/4/227 226/46/226 231/4/231
f 229/4/229 231/4/231 232/46/232
f 229/4/229 233/4/233 234/46/234
f 233/4/233 237/4/237 235/4/235
f 233/4/233 232/46/232 236/4/236
f 237/4/237 236/4/236 238/46/238
f 237/4/237 239/4/239 240/46/240
f 239/4/239 243/4/243 241/4/241
f 239/4/239 238/46/238 242/4/242
f 243/4/243 242/4/242 244/46/244
f 243/4/243 245/4/245 246/46/246
f 245/46/245 249/4/249 247/46/247
f 245/46/245 244/46/244 248/46/248
f 249/4/249 248/46/248 250/4/250
f 249/4/249 251/4/251 252/4/252
f 253/68/253 51/70/51 254/2/254
f 256/62/256 261/75/261 254/2/254
f 254/2/254 261/75/261 179/62/179
f 254/2/254 178/70/178 257/68/257
f 25/20/25 259/72/259 258/71/258
f 32/21/32 280/71/280 259/72/259
f 259/72/259 280/71/280 153/21/153
f 258/71/258 259/72/259 149/73/149
f 256/62/256 49/33/49 260/74/260
f 49/33/49 45/28/45 262/76/262
f 262/76/262 174/28/174 175/33/175
f 260/74/260 175/33/175 179/62/179
f 105/4/105 264/4/264 263/4/263
f 102/46/102 336/4/336 264/4/264
f 264/4/264 336/4/336 228/46/228
f 263/4/263 264/4/264 230/4/230
f 1/77/1 266/79/266 265/78/265
f 3/32/3 339/116/339 266/79/266
f 266/79/266 339/116/339 128/80/128
f 265/78/265 266/79/266 127/81/127
f 47/30/47 53/35/53 267/83/267
f 253/68/253 255/69/255 267/83/267
f 267/83/267 255/69/255 257/68/257
f 267/83/267 176/61/176 172/30/172
f 100/46/100 107/4/107 269/4/269
f 107/4/107 106/46/106 271/4/271
f 271/4/271 232/46/232 231/4/231
f 269/4/269 231/4/231 226/46/226
f 27/17/27 273/85/273 272/85/272
f 22/19/22 344/85/344 273/85/273
f 273/85/273 344/85/344 151/19/151
f 272/85/272 273/85/273 152/17/152
f 84/46/84 80/4/80 274/4/274
f 80/4/80 78/46/78 276/4/276
f 276/4/276 204/46/204 206/4/206
f 274/4/274 206/4/206 210/46/210
f 61/21/61 58/6/58 277/6/277
f 58/6/58 56/19/56 279/17/279
f 279/17/279 185/19/185 184/6/184
f 277/6/277 184/6/184 186/21/186
f 31/20/31 281/72/281 280/71/280
f 38/21/38 298/71/298 281/72/281
f 281/72/281 298/71/298 159/21/159
f 280/71/280 281/72/281 155/73/155
f 77/46/77 83/46/83 282/46/282
f 83/46/83 82/46/82 284/46/284
f 284/46/284 208/46/208 207/46/207
f 282/46/282 207/46/207 199/46/199
f 7/86/7 286/88/286 285/87/285
f 14/16/14 307/98/307 286/88/286
f 286/88/286 307/98/307 135/16/135
f 285/87/285 286/88/286 131/89/131
f 108/4/108 288/4/288 287/4/287
f 104/46/104 263/4/263 288/4/288
f 288/4/288 263/4/263 234/46/234
f 287/4/287 288/4/288 235/4/235
f 106/46/106 113/4/113 289/4/289
f 113/4/113 112/46/112 290/4/290
f 290/4/290 238/46/238 236/4/236
f 289/4/289 236/4/236 232/46/232
f 33/17/33 292/85/292 291/85/291
f 28/19/28 272/85/272 292/85/292
f 292/85/292 272/85/272 157/19/157
f 291/85/291 292/85/292 158/17/158
f 90/46/90 86/4/86 293/4/293
f 86/4/86 84/46/84 275/4/275
f 275/4/275 210/46/210 212/4/212
f 293/4/293 212/4/212 216/46/216
f 65/42/65 297/42/297 295/91/295
f 63/42/63 304/42/304 295/91/295
f 295/91/295 304/42/304 192/42/192
f 295/91/295 191/42/191 190/42/190
f 37/20/37 299/72/299 298/71/298
f 43/21/43 320/71/320 299/72/299
f 299/72/299 320/71/320 165/21/165
f 298/71/298 299/72/299 161/73/161
f 89/4/89 300/4/300 284/4/284
f 88/46/88 322/4/322 300/4/300
f 300/4/300 322/4/322 214/46/214
f 284/4/284 300/4/300 213/4/213
f 9/92/9 302/94/302 301/93/301
f 4/11/4 265/78/265 302/94/302
f 302/94/302 265/78/265 133/82/133
f 301/93/301 302/94/302 134/95/134
f 63/42/63 64/96/64 303/96/303
f 64/96/64 61/97/61 278/97/278
f 278/97/278 186/97/186 188/96/188
f 303/96/303 188/96/188 192/42/192
f 114/4/114 306/4/306 305/4/305
f 110/46/110 287/4/287 306/4/306
f 306/4/306 287/4/287 240/46/240
f 305/4/305 306/4/306 241/4/241
f 13/15/13 308/99/308 307/98/307
f 20/21/20 330/106/330 308/99/308
f 308/99/308 330/106/330 141/21/141
f 307/98/307 308/99/308 137/100/137
f 66/44/66 310/102/310 309/101/309
f 65/42/65 296/42/296 310/102/310
f 310/102/310 296/42/296 190/42/190
f 309/101/309 310/102/310 189/66/189
f 112/46/112 119/4/119 311/4/311
f 119/4/119 118/46/118 312/4/312
f 312/4/312 244/46/244 242/4/242
f 311/4/311 242/4/242 238/46/238
f 55/37/55 39/36/39 313/103/313
f 34/12/34 291/93/291 313/103/313
f 313/103/313 291/93/291 163/12/163
f 313/103/313 164/36/164 169/37/169
f 96/46/96 92/4/92 315/4/315
f 92/4/92 90/46/90 294/4/294
f 294/4/294 216/46/216 218/4/218
f 315/4/315 218/4/218 222/46/222
f 124/4/124 319/4/319 317/105/317
f 122/4/122 329/4/329 317/105/317
f 317/105/317 329/4/329 252/4/252
f 317/105/317 251/4/251 250/4/250
f 42/24/42 321/107/321 320/106/320
f 60/39/60 309/101/309 321/107/321
f 321/107/321 309/101/309 181/39/181
f 320/106/320 321/107/321 167/108/167
f 95/4/95 323/4/323 322/4/322
f 94/46/94 342/4/342 323/4/323
f 323/4/323 342/4/342 220/46/220
f 322/4/322 323/4/323 219/4/219
f 15/17/15 325/85/325 324/85/324
f 10/19/10 301/85/301 325/85/325
f 325/85/325 301/85/301 139/19/139
f 324/85/324 325/85/325 140/17/140
f 68/46/68 67/110/67 326/109/326
f 67/110/67 55/37/55 314/104/314
f 314/104/314 169/37/169 193/111/193
f 326/109/326 193/111/193 197/46/197
f 122/4/122 120/46/120 328/46/328
f 116/46/116 305/46/305 328/46/328
f 328/46/328 305/46/305 246/46/246
f 328/46/328 247/46/247 252/4/252
f 19/20/19 331/72/331 330/71/330
f 26/21/26 258/71/258 331/72/331
f 331/72/331 258/71/258 147/21/147
f 330/71/330 331/72/331 143/73/143
f 56/12/56 71/48/71 332/112/332
f 71/48/71 77/46/77 283/46/283
f 283/46/283 199/46/199 195/48/195
f 332/112/332 195/48/195 185/12/185
f 118/46/118 125/4/125 333/46/333
f 125/4/125 124/4/124 318/4/318
f 318/4/318 250/4/250 248/46/248
f 333/46/333 248/46/248 244/46/244
f 44/113/44 334/114/334 262/76/262
f 8/27/8 285/87/285 334/114/334
f 334/114/334 285/87/285 129/90/129
f 262/76/262 334/114/334 170/115/170
f 102/46/102 98/4/98 335/4/335
f 98/4/98 96/46/96 316/4/316
f 316/4/316 222/46/222 224/4/224
f 335/4/335 224/4/224 228/46/228
f 78/46/78 75/4/75 337/46/337
f 75/4/75 73/4/73 338/4/338
f 338/4/338 203/4/203 202/46/202
f 337/46/337 202/46/202 204/46/204
f 48/31/48 340/117/340 339/116/339
f 48/31/48 47/30/47 268/84/268
f 268/84/268 172/30/172 341/118/341
f 339/116/339 340/117/340 341/118/341
f 101/4/101 343/4/343 342/4/342
f 101/4/101 100/46/100 270/4/270
f 270/4/270 226/46/226 225/4/225
f 342/4/342 343/4/343 225/4/225
f 21/17/21 345/85/345 344/85/344
f 16/19/16 324/85/324 345/85/345
f 345/85/345 324/85/324 145/19/145
f 344/85/344 345/85/345 146/17/146
f 73/4/73 72/46/72 346/46/346
f 72/46/72 68/46/68 327/46/327
f 327/46/327 197/46/197 198/46/198
f 346/46/346 198/46/198 203/4/203
# Vertices: 346, normals: 346, texture coordinates: 118, faces: 688

